<svg fill="none" height="572" viewBox="0 0 565 572" width="565" xmlns="http://www.w3.org/2000/svg" xmlns:xlink="http://www.w3.org/1999/xlink"><filter id="a" color-interpolation-filters="sRGB" filterUnits="userSpaceOnUse" height="514.353" width="544.391" x="10.8184" y="32.3779"><feFlood flood-opacity="0" result="BackgroundImageFix"/><feColorMatrix in="SourceAlpha" result="hardAlpha" type="matrix" values="0 0 0 0 0 0 0 0 0 0 0 0 0 0 0 0 0 0 127 0"/><feOffset dy="5"/><feGaussianBlur stdDeviation="10"/><feColorMatrix type="matrix" values="0 0 0 0 0 0 0 0 0 0 0 0 0 0 0 0 0 0 0.15 0"/><feBlend in2="BackgroundImageFix" mode="normal" result="effect1_dropShadow"/><feBlend in="SourceGraphic" in2="effect1_dropShadow" mode="normal" result="shape"/></filter><linearGradient id="b"><stop offset="0" stop-color="#f69220"/><stop offset="1" stop-color="#f05c2a"/></linearGradient><linearGradient id="c" gradientUnits="userSpaceOnUse" x1="120.375" x2="131.478" xlink:href="#b" y1="365.919" y2="385.31"/><linearGradient id="d" gradientUnits="userSpaceOnUse" x1="118.05" x2="138.512" y1="379.714" y2="415.495"><stop offset="0" stop-color="#f69220"/><stop offset=".02" stop-color="#f68f21"/><stop offset=".22" stop-color="#f37925"/><stop offset=".43" stop-color="#f16828"/><stop offset=".67" stop-color="#f05f29"/><stop offset="1" stop-color="#f05c2a"/></linearGradient><linearGradient id="e" gradientUnits="userSpaceOnUse" x1="-8910.8" x2="-8880.11" xlink:href="#b" y1="3832.98" y2="4125.34"/><linearGradient id="f" gradientUnits="userSpaceOnUse" x1="276.126" x2="290.951" y1="383.912" y2="398.962"><stop offset="0" stop-color="#f69220"/><stop offset=".09" stop-color="#f58a21"/><stop offset=".44" stop-color="#f27126"/><stop offset=".75" stop-color="#f16129"/><stop offset="1" stop-color="#f05c2a"/></linearGradient><linearGradient id="g" gradientUnits="userSpaceOnUse" x1="299.013" x2="309.655" y1="382.748" y2="393.273"><stop offset="0" stop-color="#f69220"/><stop offset=".22" stop-color="#f37a24"/><stop offset=".44" stop-color="#f16928"/><stop offset=".69" stop-color="#f05f29"/><stop offset="1" stop-color="#f05c2a"/></linearGradient><linearGradient id="h" gradientUnits="userSpaceOnUse" x1="318.679" x2="327.996" y1="384.908" y2="397.731"><stop offset="0" stop-color="#f69220"/><stop offset=".36" stop-color="#f37825"/><stop offset=".75" stop-color="#f16429"/><stop offset="1" stop-color="#f05c2a"/></linearGradient><linearGradient id="i" gradientUnits="userSpaceOnUse" x1="315.419" x2="368.995" xlink:href="#b" y1="6466.56" y2="6493.59"/><linearGradient id="j" gradientUnits="userSpaceOnUse" x1="324.143" x2="336.385" xlink:href="#b" y1="1856.15" y2="1867.89"/><linearGradient id="k" gradientUnits="userSpaceOnUse" x1="436.3" x2="552.873" xlink:href="#b" y1="6627.16" y2="6713.44"/><linearGradient id="l" gradientUnits="userSpaceOnUse" x1="356.025" x2="366.41" y1="386.515" y2="394.852"><stop offset="0" stop-color="#f69220"/><stop offset=".4" stop-color="#f37525"/><stop offset=".75" stop-color="#f16329"/><stop offset="1" stop-color="#f05c2a"/></linearGradient><linearGradient id="m" gradientUnits="userSpaceOnUse" x1="539.351" x2="542.7" xlink:href="#b" y1="1965.31" y2="1981.49"/><linearGradient id="n" gradientUnits="userSpaceOnUse" x1="386.213" x2="392.626" y1="386.863" y2="397.604"><stop offset="0" stop-color="#f69220"/><stop offset=".07" stop-color="#f58622"/><stop offset=".21" stop-color="#f37326"/><stop offset=".37" stop-color="#f16628"/><stop offset=".58" stop-color="#f05e2a"/><stop offset="1" stop-color="#f05c2a"/></linearGradient><linearGradient id="o" gradientUnits="userSpaceOnUse" x1="400.127" x2="408.949" y1="386.503" y2="397.644"><stop offset="0" stop-color="#f69220"/><stop offset=".17" stop-color="#f48223"/><stop offset=".45" stop-color="#f26d27"/><stop offset=".73" stop-color="#f06029"/><stop offset="1" stop-color="#f05c2a"/></linearGradient><linearGradient id="p" gradientUnits="userSpaceOnUse" x1="418.836" x2="434.208" y1="384.632" y2="403.679"><stop offset="0" stop-color="#f69220"/><stop offset=".06" stop-color="#f58722"/><stop offset=".21" stop-color="#f37426"/><stop offset=".38" stop-color="#f16628"/><stop offset=".6" stop-color="#f05e2a"/><stop offset="1" stop-color="#f05c2a"/></linearGradient><clipPath id="q"><path d="m101 368.582h336v41h-336z"/></clipPath><path d="m109.918 31.1897c0-6.9038 5.397-12.6035 12.29-12.9806l322.328-17.632192c5.729-.313389 10.546 4.247582 10.546 9.985092v549.569c0 5.91-5.098 10.531-10.98 9.952l-325.164-32.018c-5.118-.504-9.02-4.808-9.02-9.952z" fill="#d5dfff" opacity=".5"/><g filter="url(#a)"><path d="m30.8184 53.378c0-3.3616 2.7613-6.0672 6.1221-5.9988l492.3905 10.0283c3.266.0665 5.878 2.7327 5.878 5.9988v442.2967c0 3.266-2.612 5.932-5.878 5.998l-492.3905 10.029c-3.3608.068-6.1221-2.637-6.1221-5.999z" fill="#fff"/><path d="m31.3184 53.378c0-3.0814 2.5312-5.5616 5.612-5.4989l492.3906 10.0283c2.994.061 5.388 2.505 5.388 5.4989v442.2967c0 2.994-2.394 5.438-5.388 5.499l-492.3906 10.028c-3.0808.063-5.612-2.418-5.612-5.499z" stroke="#dadce0"/></g><path d="m120.796 148.646v19.936h-4.284v-8.372h-9.24v8.372h-4.284v-19.936h4.284v8.064h9.24v-8.064zm10.508 20.16c-1.512 0-2.837-.299-3.976-.896-1.12-.597-1.988-1.456-2.604-2.576-.597-1.12-.896-2.427-.896-3.92s.299-2.8.896-3.92c.616-1.12 1.484-1.979 2.604-2.576 1.139-.597 2.464-.896 3.976-.896 1.494 0 2.8.299 3.92.896s1.979 1.456 2.576 2.576c.616 1.12.924 2.427.924 3.92s-.308 2.8-.924 3.92c-.597 1.12-1.456 1.979-2.576 2.576s-2.426.896-3.92.896zm0-3.22c1.046 0 1.839-.345 2.38-1.036.56-.691.84-1.736.84-3.136 0-1.381-.28-2.417-.84-3.108-.541-.709-1.334-1.064-2.38-1.064-1.064 0-1.876.355-2.436 1.064-.56.691-.84 1.727-.84 3.108 0 2.781 1.092 4.172 3.276 4.172zm15.555 3.22c-2.688 0-4.807-.579-6.356-1.736l1.12-2.94c.747.541 1.577.961 2.492 1.26.915.28 1.848.42 2.8.42.728 0 1.288-.112 1.68-.336s.588-.551.588-.98c0-.355-.14-.635-.42-.84s-.775-.383-1.484-.532l-2.324-.532c-1.363-.299-2.371-.775-3.024-1.428-.635-.653-.952-1.521-.952-2.604 0-.877.252-1.661.756-2.352.523-.691 1.241-1.223 2.156-1.596.915-.392 1.969-.588 3.164-.588 1.008 0 1.997.159 2.968.476.971.299 1.839.728 2.604 1.288l-1.176 2.828c-.728-.504-1.475-.887-2.24-1.148-.747-.261-1.475-.392-2.184-.392-.691 0-1.232.121-1.624.364s-.588.579-.588 1.008c0 .317.112.579.336.784.243.187.663.345 1.26.476l2.38.532c1.456.336 2.511.84 3.164 1.512s.98 1.568.98 2.688c0 1.344-.541 2.408-1.624 3.192s-2.567 1.176-4.452 1.176zm13.833-11.256v5.516c0 .784.206 1.363.616 1.736.411.355.943.532 1.596.532.411 0 .878-.065 1.4-.196v3.276c-.672.261-1.484.392-2.436.392-1.754 0-3.098-.495-4.032-1.484-.914-.989-1.372-2.38-1.372-4.172v-5.6h-2.688v-3.164h2.688v-3.332l4.228-1.372v4.704h3.612v3.164zm5.782-3.164h4.228v14.196h-4.228zm4.368-6.664v3.976h-4.508v-3.976zm12.079 6.3c3.36 0 5.04 1.988 5.04 5.964v8.596h-4.228v-8.4c0-.989-.186-1.708-.56-2.156-.354-.467-.924-.7-1.708-.7-.933 0-1.68.299-2.24.896s-.84 1.4-.84 2.408v7.952h-4.228v-10.136c0-1.512-.074-2.865-.224-4.06h3.976l.28 2.24c.504-.84 1.158-1.484 1.96-1.932.822-.448 1.746-.672 2.772-.672zm22.772.364v13.552c0 2.259-.653 3.976-1.96 5.152-1.306 1.176-3.21 1.764-5.712 1.764-2.258 0-4.218-.439-5.88-1.316l.644-3.136c1.718.859 3.416 1.288 5.096 1.288 1.214 0 2.119-.289 2.716-.868.598-.56.896-1.419.896-2.576v-2.464c-.448.691-1.073 1.269-1.876 1.736-.802.448-1.689.672-2.66.672-1.232 0-2.324-.289-3.276-.868-.952-.597-1.698-1.428-2.24-2.492-.541-1.083-.812-2.324-.812-3.724s.271-2.632.812-3.696c.542-1.083 1.288-1.913 2.24-2.492.952-.597 2.044-.896 3.276-.896.99 0 1.886.215 2.688.644.803.429 1.419 1.008 1.848 1.736v-2.016zm-7.504 10.584c1.027 0 1.83-.336 2.408-1.008.598-.691.896-1.643.896-2.856 0-1.195-.289-2.128-.868-2.8-.578-.691-1.39-1.036-2.436-1.036-1.045 0-1.866.345-2.464 1.036-.597.672-.896 1.605-.896 2.8s.299 2.137.896 2.828c.598.691 1.419 1.036 2.464 1.036zm23.626-3.136h-9.352c.075 1.325.42 2.296 1.036 2.912.616.597 1.531.896 2.744.896.728 0 1.456-.121 2.184-.364s1.4-.597 2.016-1.064l1.12 2.856c-.672.541-1.512.971-2.52 1.288-.989.299-1.988.448-2.996.448-2.389 0-4.265-.653-5.628-1.96-1.362-1.325-2.044-3.127-2.044-5.404 0-1.437.29-2.716.868-3.836.598-1.139 1.428-2.016 2.492-2.632 1.064-.635 2.268-.952 3.612-.952 1.998 0 3.575.653 4.732 1.96 1.158 1.288 1.736 3.033 1.736 5.236zm-6.356-4.844c-.802 0-1.456.233-1.96.7-.485.467-.802 1.148-.952 2.044h5.628c-.224-1.829-1.129-2.744-2.716-2.744zm17.271-2.94c.597 0 1.101.093 1.512.28l-.028 3.864c-.691-.317-1.381-.476-2.072-.476-1.12 0-1.979.308-2.576.924-.579.597-.868 1.437-.868 2.52v7.42h-4.228v-10.136c0-1.512-.075-2.865-.224-4.06h3.976l.28 2.436c.355-.896.905-1.577 1.652-2.044.765-.485 1.624-.728 2.576-.728zm19.779-.028c1.214 0 2.296.317 3.248.952.952.616 1.69 1.493 2.212 2.632.542 1.139.812 2.436.812 3.892s-.261 2.744-.784 3.864c-.522 1.101-1.26 1.951-2.212 2.548s-2.044.896-3.276.896c-.989 0-1.876-.205-2.66-.616s-1.381-.98-1.792-1.708v8.148h-4.228v-16.184c0-1.512-.074-2.865-.224-4.06h3.976l.28 2.352c.374-.84.971-1.503 1.792-1.988.84-.485 1.792-.728 2.856-.728zm-1.204 11.564c1.046 0 1.848-.345 2.408-1.036.56-.709.84-1.727.84-3.052s-.289-2.361-.868-3.108c-.56-.747-1.353-1.12-2.38-1.12-1.045 0-1.857.364-2.436 1.092-.56.709-.84 1.736-.84 3.08s.28 2.371.84 3.08c.579.709 1.391 1.064 2.436 1.064zm18.448-11.536c.598 0 1.102.093 1.512.28l-.028 3.864c-.69-.317-1.381-.476-2.072-.476-1.12 0-1.978.308-2.576.924-.578.597-.868 1.437-.868 2.52v7.42h-4.228v-10.136c0-1.512-.074-2.865-.224-4.06h3.976l.28 2.436c.355-.896.906-1.577 1.652-2.044.766-.485 1.624-.728 2.576-.728zm9.727 14.756c-1.512 0-2.837-.299-3.976-.896-1.12-.597-1.988-1.456-2.604-2.576-.597-1.12-.896-2.427-.896-3.92s.299-2.8.896-3.92c.616-1.12 1.484-1.979 2.604-2.576 1.139-.597 2.464-.896 3.976-.896 1.494 0 2.8.299 3.92.896s1.979 1.456 2.576 2.576c.616 1.12.924 2.427.924 3.92s-.308 2.8-.924 3.92c-.597 1.12-1.456 1.979-2.576 2.576s-2.426.896-3.92.896zm0-3.22c1.046 0 1.839-.345 2.38-1.036.56-.691.84-1.736.84-3.136 0-1.381-.28-2.417-.84-3.108-.541-.709-1.334-1.064-2.38-1.064-1.064 0-1.876.355-2.436 1.064-.56.691-.84 1.727-.84 3.108 0 2.781 1.092 4.172 3.276 4.172zm23.849-11.172-6.244 14.168h-3.584l-6.16-14.168h4.424l3.64 9.184 3.752-9.184zm1.395-.028h4.228v14.196h-4.228zm4.368-6.664v3.976h-4.508v-3.976zm17.539.252v20.608h-4.172v-2.1c-.429.728-1.036 1.297-1.82 1.708s-1.67.616-2.66.616c-1.213 0-2.296-.308-3.248-.924-.952-.635-1.698-1.512-2.24-2.632-.522-1.139-.784-2.436-.784-3.892s.262-2.735.784-3.836c.542-1.12 1.279-1.979 2.212-2.576.952-.616 2.044-.924 3.276-.924.952 0 1.82.205 2.604.616.784.392 1.391.943 1.82 1.652v-8.316zm-7.42 17.612c1.046 0 1.848-.355 2.408-1.064.56-.728.84-1.764.84-3.108 0-1.325-.289-2.343-.868-3.052-.56-.728-1.353-1.092-2.38-1.092-1.045 0-1.857.355-2.436 1.064-.578.709-.868 1.717-.868 3.024 0 1.344.29 2.389.868 3.136.579.728 1.391 1.092 2.436 1.092zm23.573-3.752h-9.352c.075 1.325.42 2.296 1.036 2.912.616.597 1.531.896 2.744.896.728 0 1.456-.121 2.184-.364s1.4-.597 2.016-1.064l1.12 2.856c-.672.541-1.512.971-2.52 1.288-.989.299-1.988.448-2.996.448-2.389 0-4.265-.653-5.628-1.96-1.363-1.325-2.044-3.127-2.044-5.404 0-1.437.289-2.716.868-3.836.597-1.139 1.428-2.016 2.492-2.632 1.064-.635 2.268-.952 3.612-.952 1.997 0 3.575.653 4.732 1.96 1.157 1.288 1.736 3.033 1.736 5.236zm-6.356-4.844c-.803 0-1.456.233-1.96.7-.485.467-.803 1.148-.952 2.044h5.628c-.224-1.829-1.129-2.744-2.716-2.744zm14.443 11.816c-2.688 0-4.807-.579-6.356-1.736l1.12-2.94c.746.541 1.577.961 2.492 1.26.914.28 1.848.42 2.8.42.728 0 1.288-.112 1.68-.336s.588-.551.588-.98c0-.355-.14-.635-.42-.84s-.775-.383-1.484-.532l-2.324-.532c-1.363-.299-2.371-.775-3.024-1.428-.635-.653-.952-1.521-.952-2.604 0-.877.252-1.661.756-2.352.522-.691 1.241-1.223 2.156-1.596.914-.392 1.969-.588 3.164-.588 1.008 0 1.997.159 2.968.476.97.299 1.838.728 2.604 1.288l-1.176 2.828c-.728-.504-1.475-.887-2.24-1.148-.747-.261-1.475-.392-2.184-.392-.691 0-1.232.121-1.624.364s-.588.579-.588 1.008c0 .317.112.579.336.784.242.187.662.345 1.26.476l2.38.532c1.456.336 2.51.84 3.164 1.512.653.672.98 1.568.98 2.688 0 1.344-.542 2.408-1.624 3.192-1.083.784-2.567 1.176-4.452 1.176zm23.973-17.5c-.654 0-1.176.187-1.568.56-.392.355-.588.933-.588 1.736v.784h2.968v3.164h-2.968v11.032h-4.228v-11.032h-2.66v-3.164h2.66v-.896c0-1.792.457-3.183 1.372-4.172.914-.989 2.24-1.484 3.976-1.484.97 0 1.773.121 2.408.364v3.304c-.542-.131-.999-.196-1.372-.196zm17.412 3.08v14.196h-4.172v-2.1c-.429.728-1.036 1.297-1.82 1.708s-1.67.616-2.66.616c-1.232 0-2.324-.299-3.276-.896-.933-.597-1.67-1.447-2.212-2.548-.522-1.12-.784-2.408-.784-3.864s.262-2.753.784-3.892c.542-1.139 1.288-2.016 2.24-2.632.952-.635 2.035-.952 3.248-.952.99 0 1.876.215 2.66.644s1.391 1.008 1.82 1.736v-2.016zm-7.42 11.2c1.046 0 1.848-.355 2.408-1.064s.84-1.736.84-3.08-.28-2.371-.84-3.08c-.56-.728-1.362-1.092-2.408-1.092-1.045 0-1.857.373-2.436 1.12-.578.747-.868 1.783-.868 3.108s.28 2.343.84 3.052c.579.691 1.4 1.036 2.464 1.036zm16.265 3.22c-2.688 0-4.807-.579-6.356-1.736l1.12-2.94c.747.541 1.577.961 2.492 1.26.915.28 1.848.42 2.8.42.728 0 1.288-.112 1.68-.336s.588-.551.588-.98c0-.355-.14-.635-.42-.84s-.775-.383-1.484-.532l-2.324-.532c-1.363-.299-2.371-.775-3.024-1.428-.635-.653-.952-1.521-.952-2.604 0-.877.252-1.661.756-2.352.523-.691 1.241-1.223 2.156-1.596.915-.392 1.969-.588 3.164-.588 1.008 0 1.997.159 2.968.476.971.299 1.839.728 2.604 1.288l-1.176 2.828c-.728-.504-1.475-.887-2.24-1.148-.747-.261-1.475-.392-2.184-.392-.691 0-1.232.121-1.624.364s-.588.579-.588 1.008c0 .317.112.579.336.784.243.187.663.345 1.26.476l2.38.532c1.456.336 2.511.84 3.164 1.512s.98 1.568.98 2.688c0 1.344-.541 2.408-1.624 3.192s-2.567 1.176-4.452 1.176zm13.833-11.256v5.516c0 .784.206 1.363.616 1.736.411.355.943.532 1.596.532.411 0 .878-.065 1.4-.196v3.276c-.672.261-1.484.392-2.436.392-1.754 0-3.098-.495-4.032-1.484-.914-.989-1.372-2.38-1.372-4.172v-5.6h-2.688v-3.164h2.688v-3.332l4.228-1.372v4.704h3.612v3.164zm10.694 6.524v2.884c0 1.101-.196 2.091-.588 2.968-.374.896-1.018 1.792-1.932 2.688l-1.652-1.288c.914-.952 1.484-1.867 1.708-2.744h-2.1v-4.508zm-317.488 43.732c-2.688 0-4.807-.579-6.356-1.736l1.12-2.94c.747.541 1.577.961 2.492 1.26.915.28 1.848.42 2.8.42.728 0 1.288-.112 1.68-.336s.588-.551.588-.98c0-.355-.14-.635-.42-.84s-.775-.383-1.484-.532l-2.324-.532c-1.363-.299-2.371-.775-3.024-1.428-.635-.653-.952-1.521-.952-2.604 0-.877.252-1.661.756-2.352.523-.691 1.241-1.223 2.156-1.596.915-.392 1.969-.588 3.164-.588 1.008 0 1.997.159 2.968.476.971.299 1.839.728 2.604 1.288l-1.176 2.828c-.728-.504-1.475-.887-2.24-1.148-.747-.261-1.475-.392-2.184-.392-.691 0-1.232.121-1.624.364s-.588.579-.588 1.008c0 .317.112.579.336.784.243.187.663.345 1.26.476l2.38.532c1.456.336 2.511.84 3.164 1.512s.98 1.568.98 2.688c0 1.344-.541 2.408-1.624 3.192s-2.567 1.176-4.452 1.176zm13.833-11.256v5.516c0 .784.206 1.363.616 1.736.411.355.943.532 1.596.532.411 0 .878-.065 1.4-.196v3.276c-.672.261-1.484.392-2.436.392-1.754 0-3.098-.495-4.032-1.484-.914-.989-1.372-2.38-1.372-4.172v-5.6h-2.688v-3.164h2.688v-3.332l4.228-1.372v4.704h3.612v3.164zm20.006-3.164v14.196h-4.172v-2.1c-.429.728-1.036 1.297-1.82 1.708s-1.671.616-2.66.616c-1.232 0-2.324-.299-3.276-.896-.933-.597-1.671-1.447-2.212-2.548-.523-1.12-.784-2.408-.784-3.864s.261-2.753.784-3.892c.541-1.139 1.288-2.016 2.24-2.632.952-.635 2.035-.952 3.248-.952.989 0 1.876.215 2.66.644s1.391 1.008 1.82 1.736v-2.016zm-7.42 11.2c1.045 0 1.848-.355 2.408-1.064s.84-1.736.84-3.08-.28-2.371-.84-3.08c-.56-.728-1.363-1.092-2.408-1.092s-1.857.373-2.436 1.12-.868 1.783-.868 3.108.28 2.343.84 3.052c.579.691 1.4 1.036 2.464 1.036zm19.513-11.564c1.232 0 2.324.308 3.276.924.952.597 1.689 1.456 2.212 2.576.522 1.101.784 2.38.784 3.836s-.271 2.753-.812 3.892c-.523 1.12-1.26 1.997-2.212 2.632-.952.616-2.035.924-3.248.924-.99 0-1.886-.205-2.688-.616-.784-.429-1.382-1.008-1.792-1.736v2.128h-4.2v-20.608h4.228v8.4c.41-.728 1.008-1.297 1.792-1.708.802-.429 1.689-.644 2.66-.644zm-1.204 11.564c1.045 0 1.848-.364 2.408-1.092s.84-1.773.84-3.136c0-1.307-.28-2.315-.84-3.024s-1.363-1.064-2.408-1.064c-1.046 0-1.858.364-2.436 1.092-.56.709-.84 1.727-.84 3.052 0 1.344.28 2.38.84 3.108.578.709 1.39 1.064 2.436 1.064zm10.188-17.612h4.228v20.608h-4.228zm20.423 13.86h-9.352c.075 1.325.42 2.296 1.036 2.912.616.597 1.531.896 2.744.896.728 0 1.456-.121 2.184-.364s1.4-.597 2.016-1.064l1.12 2.856c-.672.541-1.512.971-2.52 1.288-.989.299-1.988.448-2.996.448-2.389 0-4.265-.653-5.628-1.96-1.362-1.325-2.044-3.127-2.044-5.404 0-1.437.29-2.716.868-3.836.598-1.139 1.428-2.016 2.492-2.632 1.064-.635 2.268-.952 3.612-.952 1.998 0 3.575.653 4.732 1.96 1.158 1.288 1.736 3.033 1.736 5.236zm-6.356-4.844c-.802 0-1.456.233-1.96.7-.485.467-.802 1.148-.952 2.044h5.628c-.224-1.829-1.129-2.744-2.716-2.744zm13.239 7.084v2.884c0 1.101-.196 2.091-.588 2.968-.373.896-1.017 1.792-1.932 2.688l-1.652-1.288c.915-.952 1.484-1.867 1.708-2.744h-2.1v-4.508zm25.199-9.688v14.196h-4.172v-2.1c-.429.728-1.036 1.297-1.82 1.708s-1.671.616-2.66.616c-1.232 0-2.324-.299-3.276-.896-.933-.597-1.671-1.447-2.212-2.548-.523-1.12-.784-2.408-.784-3.864s.261-2.753.784-3.892c.541-1.139 1.288-2.016 2.24-2.632.952-.635 2.035-.952 3.248-.952.989 0 1.876.215 2.66.644s1.391 1.008 1.82 1.736v-2.016zm-7.42 11.2c1.045 0 1.848-.355 2.408-1.064s.84-1.736.84-3.08-.28-2.371-.84-3.08c-.56-.728-1.363-1.092-2.408-1.092s-1.857.373-2.436 1.12-.868 1.783-.868 3.108.28 2.343.84 3.052c.579.691 1.4 1.036 2.464 1.036zm19.597-11.564c3.36 0 5.04 1.988 5.04 5.964v8.596h-4.228v-8.4c0-.989-.187-1.708-.56-2.156-.355-.467-.924-.7-1.708-.7-.934 0-1.68.299-2.24.896s-.84 1.4-.84 2.408v7.952h-4.228v-10.136c0-1.512-.075-2.865-.224-4.06h3.976l.28 2.24c.504-.84 1.157-1.484 1.96-1.932.821-.448 1.745-.672 2.772-.672zm22.632-6.048v20.608h-4.172v-2.1c-.43.728-1.036 1.297-1.82 1.708s-1.671.616-2.66.616c-1.214 0-2.296-.308-3.248-.924-.952-.635-1.699-1.512-2.24-2.632-.523-1.139-.784-2.436-.784-3.892s.261-2.735.784-3.836c.541-1.12 1.278-1.979 2.212-2.576.952-.616 2.044-.924 3.276-.924.952 0 1.82.205 2.604.616.784.392 1.39.943 1.82 1.652v-8.316zm-7.42 17.612c1.045 0 1.848-.355 2.408-1.064.56-.728.84-1.764.84-3.108 0-1.325-.29-2.343-.868-3.052-.56-.728-1.354-1.092-2.38-1.092-1.046 0-1.858.355-2.436 1.064-.579.709-.868 1.717-.868 3.024 0 1.344.289 2.389.868 3.136.578.728 1.39 1.092 2.436 1.092zm24.139 3.22c-2.688 0-4.806-.579-6.356-1.736l1.12-2.94c.747.541 1.578.961 2.492 1.26.915.28 1.848.42 2.8.42.728 0 1.288-.112 1.68-.336s.588-.551.588-.98c0-.355-.14-.635-.42-.84s-.774-.383-1.484-.532l-2.324-.532c-1.362-.299-2.37-.775-3.024-1.428-.634-.653-.952-1.521-.952-2.604 0-.877.252-1.661.756-2.352.523-.691 1.242-1.223 2.156-1.596.915-.392 1.97-.588 3.164-.588 1.008 0 1.998.159 2.968.476.971.299 1.839.728 2.604 1.288l-1.176 2.828c-.728-.504-1.474-.887-2.24-1.148-.746-.261-1.474-.392-2.184-.392-.69 0-1.232.121-1.624.364s-.588.579-.588 1.008c0 .317.112.579.336.784.243.187.663.345 1.26.476l2.38.532c1.456.336 2.511.84 3.164 1.512.654.672.98 1.568.98 2.688 0 1.344-.541 2.408-1.624 3.192-1.082.784-2.566 1.176-4.452 1.176zm13.834-11.256v5.516c0 .784.205 1.363.616 1.736.41.355.942.532 1.596.532.41 0 .877-.065 1.4-.196v3.276c-.672.261-1.484.392-2.436.392-1.755 0-3.099-.495-4.032-1.484-.915-.989-1.372-2.38-1.372-4.172v-5.6h-2.688v-3.164h2.688v-3.332l4.228-1.372v4.704h3.612v3.164zm14.041-3.5c.598 0 1.102.093 1.512.28l-.028 3.864c-.69-.317-1.381-.476-2.072-.476-1.12 0-1.978.308-2.576.924-.578.597-.868 1.437-.868 2.52v7.42h-4.228v-10.136c0-1.512-.074-2.865-.224-4.06h3.976l.28 2.436c.355-.896.906-1.577 1.652-2.044.766-.485 1.624-.728 2.576-.728zm15.691 7.784h-9.352c.075 1.325.42 2.296 1.036 2.912.616.597 1.531.896 2.744.896.728 0 1.456-.121 2.184-.364s1.4-.597 2.016-1.064l1.12 2.856c-.672.541-1.512.971-2.52 1.288-.989.299-1.988.448-2.996.448-2.389 0-4.265-.653-5.628-1.96-1.363-1.325-2.044-3.127-2.044-5.404 0-1.437.289-2.716.868-3.836.597-1.139 1.428-2.016 2.492-2.632 1.064-.635 2.268-.952 3.612-.952 1.997 0 3.575.653 4.732 1.96 1.157 1.288 1.736 3.033 1.736 5.236zm-6.356-4.844c-.803 0-1.456.233-1.96.7-.485.467-.803 1.148-.952 2.044h5.628c-.224-1.829-1.129-2.744-2.716-2.744zm23.235-2.604v14.196h-4.172v-2.1c-.43.728-1.036 1.297-1.82 1.708s-1.671.616-2.66.616c-1.232 0-2.324-.299-3.276-.896-.934-.597-1.671-1.447-2.212-2.548-.523-1.12-.784-2.408-.784-3.864s.261-2.753.784-3.892c.541-1.139 1.288-2.016 2.24-2.632.952-.635 2.034-.952 3.248-.952.989 0 1.876.215 2.66.644s1.39 1.008 1.82 1.736v-2.016zm-7.42 11.2c1.045 0 1.848-.355 2.408-1.064s.84-1.736.84-3.08-.28-2.371-.84-3.08c-.56-.728-1.363-1.092-2.408-1.092-1.046 0-1.858.373-2.436 1.12-.579.747-.868 1.783-.868 3.108s.28 2.343.84 3.052c.578.691 1.4 1.036 2.464 1.036zm28.192-11.564c1.624 0 2.828.495 3.612 1.484.803.971 1.204 2.464 1.204 4.48v8.596h-4.228v-8.456c0-.989-.158-1.699-.476-2.128-.317-.448-.84-.672-1.568-.672-.858 0-1.521.299-1.988.896-.466.597-.7 1.437-.7 2.52v7.84h-4.228v-8.456c0-.971-.168-1.68-.504-2.128-.317-.448-.83-.672-1.54-.672-.858 0-1.53.299-2.016.896-.466.597-.7 1.437-.7 2.52v7.84h-4.228v-10.136c0-1.512-.074-2.865-.224-4.06h3.976l.252 2.128c.43-.803 1.027-1.419 1.792-1.848.784-.429 1.68-.644 2.688-.644 2.11 0 3.51.877 4.2 2.632.467-.803 1.111-1.437 1.932-1.904.84-.485 1.755-.728 2.744-.728zm8.152-6.048h4.228v20.608h-4.228zm7.684 6.412h4.228v14.196h-4.228zm4.368-6.664v3.976h-4.508v-3.976zm12.079 6.3c3.36 0 5.04 1.988 5.04 5.964v8.596h-4.228v-8.4c0-.989-.186-1.708-.56-2.156-.354-.467-.924-.7-1.708-.7-.933 0-1.68.299-2.24.896s-.84 1.4-.84 2.408v7.952h-4.228v-10.136c0-1.512-.074-2.865-.224-4.06h3.976l.28 2.24c.504-.84 1.158-1.484 1.96-1.932.822-.448 1.746-.672 2.772-.672zm21.148 7.812h-9.352c.075 1.325.42 2.296 1.036 2.912.616.597 1.531.896 2.744.896.728 0 1.456-.121 2.184-.364s1.4-.597 2.016-1.064l1.12 2.856c-.672.541-1.512.971-2.52 1.288-.989.299-1.988.448-2.996.448-2.389 0-4.265-.653-5.628-1.96-1.362-1.325-2.044-3.127-2.044-5.404 0-1.437.29-2.716.868-3.836.598-1.139 1.428-2.016 2.492-2.632 1.064-.635 2.268-.952 3.612-.952 1.998 0 3.575.653 4.732 1.96 1.158 1.288 1.736 3.033 1.736 5.236zm-6.356-4.844c-.802 0-1.456.233-1.96.7-.485.467-.802 1.148-.952 2.044h5.628c-.224-1.829-1.129-2.744-2.716-2.744zm23.235-9.016v20.608h-4.172v-2.1c-.43.728-1.036 1.297-1.82 1.708s-1.671.616-2.66.616c-1.214 0-2.296-.308-3.248-.924-.952-.635-1.699-1.512-2.24-2.632-.523-1.139-.784-2.436-.784-3.892s.261-2.735.784-3.836c.541-1.12 1.278-1.979 2.212-2.576.952-.616 2.044-.924 3.276-.924.952 0 1.82.205 2.604.616.784.392 1.39.943 1.82 1.652v-8.316zm-7.42 17.612c1.045 0 1.848-.355 2.408-1.064.56-.728.84-1.764.84-3.108 0-1.325-.29-2.343-.868-3.052-.56-.728-1.354-1.092-2.38-1.092-1.046 0-1.858.355-2.436 1.064-.579.709-.868 1.717-.868 3.024 0 1.344.289 2.389.868 3.136.578.728 1.39 1.092 2.436 1.092zm-303.056 42.22c-2.688 0-4.807-.579-6.356-1.736l1.12-2.94c.747.541 1.577.961 2.492 1.26.915.28 1.848.42 2.8.42.728 0 1.288-.112 1.68-.336s.588-.551.588-.98c0-.355-.14-.635-.42-.84s-.775-.383-1.484-.532l-2.324-.532c-1.363-.299-2.371-.775-3.024-1.428-.635-.653-.952-1.521-.952-2.604 0-.877.252-1.661.756-2.352.523-.691 1.241-1.223 2.156-1.596.915-.392 1.969-.588 3.164-.588 1.008 0 1.997.159 2.968.476.971.299 1.839.728 2.604 1.288l-1.176 2.828c-.728-.504-1.475-.887-2.24-1.148-.747-.261-1.475-.392-2.184-.392-.691 0-1.232.121-1.624.364s-.588.579-.588 1.008c0 .317.112.579.336.784.243.187.663.345 1.26.476l2.38.532c1.456.336 2.511.84 3.164 1.512s.98 1.568.98 2.688c0 1.344-.541 2.408-1.624 3.192s-2.567 1.176-4.452 1.176zm21.39-6.972h-9.352c.075 1.325.42 2.296 1.036 2.912.616.597 1.531.896 2.744.896.728 0 1.456-.121 2.184-.364s1.4-.597 2.016-1.064l1.12 2.856c-.672.541-1.512.971-2.52 1.288-.989.299-1.988.448-2.996.448-2.389 0-4.265-.653-5.628-1.96-1.363-1.325-2.044-3.127-2.044-5.404 0-1.437.289-2.716.868-3.836.597-1.139 1.428-2.016 2.492-2.632 1.064-.635 2.268-.952 3.612-.952 1.997 0 3.575.653 4.732 1.96 1.157 1.288 1.736 3.033 1.736 5.236zm-6.356-4.844c-.803 0-1.456.233-1.96.7-.485.467-.803 1.148-.952 2.044h5.628c-.224-1.829-1.129-2.744-2.716-2.744zm17.271-2.94c.597 0 1.101.093 1.512.28l-.028 3.864c-.691-.317-1.382-.476-2.072-.476-1.12 0-1.979.308-2.576.924-.579.597-.868 1.437-.868 2.52v7.42h-4.228v-10.136c0-1.512-.075-2.865-.224-4.06h3.976l.28 2.436c.354-.896.905-1.577 1.652-2.044.765-.485 1.624-.728 2.576-.728zm18.072.364-6.244 14.168h-3.584l-6.16-14.168h4.424l3.64 9.184 3.752-9.184zm1.394-.028h4.228v14.196h-4.228zm4.368-6.664v3.976h-4.508v-3.976zm10.036 21.084c-2.315 0-4.135-.653-5.46-1.96-1.307-1.307-1.96-3.089-1.96-5.348 0-1.475.317-2.772.952-3.892.635-1.139 1.521-2.016 2.66-2.632 1.157-.635 2.492-.952 4.004-.952 1.027 0 2.025.159 2.996.476s1.745.747 2.324 1.288l-1.12 2.94c-.56-.448-1.176-.793-1.848-1.036-.672-.261-1.325-.392-1.96-.392-1.157 0-2.063.355-2.716 1.064-.635.691-.952 1.708-.952 3.052 0 1.363.317 2.399.952 3.108.635.691 1.54 1.036 2.716 1.036.635 0 1.288-.121 1.96-.364.672-.261 1.288-.616 1.848-1.064l1.12 2.94c-.616.541-1.419.971-2.408 1.288-.989.299-2.025.448-3.108.448zm20.266-6.972h-9.352c.075 1.325.42 2.296 1.036 2.912.616.597 1.531.896 2.744.896.728 0 1.456-.121 2.184-.364s1.4-.597 2.016-1.064l1.12 2.856c-.672.541-1.512.971-2.52 1.288-.989.299-1.988.448-2.996.448-2.389 0-4.265-.653-5.628-1.96-1.363-1.325-2.044-3.127-2.044-5.404 0-1.437.289-2.716.868-3.836.597-1.139 1.428-2.016 2.492-2.632 1.064-.635 2.268-.952 3.612-.952 1.997 0 3.575.653 4.732 1.96 1.157 1.288 1.736 3.033 1.736 5.236zm-6.356-4.844c-.803 0-1.456.233-1.96.7-.485.467-.803 1.148-.952 2.044h5.628c-.224-1.829-1.129-2.744-2.716-2.744zm14.442 11.816c-2.688 0-4.806-.579-6.356-1.736l1.12-2.94c.747.541 1.578.961 2.492 1.26.915.28 1.848.42 2.8.42.728 0 1.288-.112 1.68-.336s.588-.551.588-.98c0-.355-.14-.635-.42-.84s-.774-.383-1.484-.532l-2.324-.532c-1.362-.299-2.37-.775-3.024-1.428-.634-.653-.952-1.521-.952-2.604 0-.877.252-1.661.756-2.352.523-.691 1.242-1.223 2.156-1.596.915-.392 1.97-.588 3.164-.588 1.008 0 1.998.159 2.968.476.971.299 1.839.728 2.604 1.288l-1.176 2.828c-.728-.504-1.474-.887-2.24-1.148-.746-.261-1.474-.392-2.184-.392-.69 0-1.232.121-1.624.364s-.588.579-.588 1.008c0 .317.112.579.336.784.243.187.663.345 1.26.476l2.38.532c1.456.336 2.511.84 3.164 1.512.654.672.98 1.568.98 2.688 0 1.344-.541 2.408-1.624 3.192-1.082.784-2.566 1.176-4.452 1.176zm30.749-14.42v14.196h-4.172v-2.1c-.429.728-1.036 1.297-1.82 1.708s-1.67.616-2.66.616c-1.232 0-2.324-.299-3.276-.896-.933-.597-1.67-1.447-2.212-2.548-.522-1.12-.784-2.408-.784-3.864s.262-2.753.784-3.892c.542-1.139 1.288-2.016 2.24-2.632.952-.635 2.035-.952 3.248-.952.99 0 1.876.215 2.66.644s1.391 1.008 1.82 1.736v-2.016zm-7.42 11.2c1.046 0 1.848-.355 2.408-1.064s.84-1.736.84-3.08-.28-2.371-.84-3.08c-.56-.728-1.362-1.092-2.408-1.092-1.045 0-1.857.373-2.436 1.12-.578.747-.868 1.783-.868 3.108s.28 2.343.84 3.052c.579.691 1.4 1.036 2.464 1.036zm16.153-8.036v5.516c0 .784.206 1.363.616 1.736.411.355.943.532 1.596.532.411 0 .878-.065 1.4-.196v3.276c-.672.261-1.484.392-2.436.392-1.754 0-3.098-.495-4.032-1.484-.914-.989-1.372-2.38-1.372-4.172v-5.6h-2.688v-3.164h2.688v-3.332l4.228-1.372v4.704h3.612v3.164zm27.881-3.164v14.196h-4.172v-2.1c-.43.728-1.036 1.297-1.82 1.708s-1.671.616-2.66.616c-1.232 0-2.324-.299-3.276-.896-.934-.597-1.671-1.447-2.212-2.548-.523-1.12-.784-2.408-.784-3.864s.261-2.753.784-3.892c.541-1.139 1.288-2.016 2.24-2.632.952-.635 2.034-.952 3.248-.952.989 0 1.876.215 2.66.644s1.39 1.008 1.82 1.736v-2.016zm-7.42 11.2c1.045 0 1.848-.355 2.408-1.064s.84-1.736.84-3.08-.28-2.371-.84-3.08c-.56-.728-1.363-1.092-2.408-1.092-1.046 0-1.858.373-2.436 1.12-.579.747-.868 1.783-.868 3.108s.28 2.343.84 3.052c.578.691 1.4 1.036 2.464 1.036zm27.387-11.564c1.214 0 2.296.317 3.248.952.952.616 1.69 1.493 2.212 2.632.542 1.139.812 2.436.812 3.892s-.261 2.744-.784 3.864c-.522 1.101-1.26 1.951-2.212 2.548s-2.044.896-3.276.896c-.989 0-1.876-.205-2.66-.616s-1.381-.98-1.792-1.708v8.148h-4.228v-16.184c0-1.512-.074-2.865-.224-4.06h3.976l.28 2.352c.374-.84.971-1.503 1.792-1.988.84-.485 1.792-.728 2.856-.728zm-1.204 11.564c1.046 0 1.848-.345 2.408-1.036.56-.709.84-1.727.84-3.052s-.289-2.361-.868-3.108c-.56-.747-1.353-1.12-2.38-1.12-1.045 0-1.857.364-2.436 1.092-.56.709-.84 1.736-.84 3.08s.28 2.371.84 3.08c.579.709 1.391 1.064 2.436 1.064zm18.449-11.536c.597 0 1.101.093 1.512.28l-.028 3.864c-.691-.317-1.382-.476-2.072-.476-1.12 0-1.979.308-2.576.924-.579.597-.868 1.437-.868 2.52v7.42h-4.228v-10.136c0-1.512-.075-2.865-.224-4.06h3.976l.28 2.436c.354-.896.905-1.577 1.652-2.044.765-.485 1.624-.728 2.576-.728zm3.224.336h4.228v14.196h-4.228zm4.368-6.664v3.976h-4.508v-3.976zm10.036 21.084c-2.315 0-4.135-.653-5.46-1.96-1.307-1.307-1.96-3.089-1.96-5.348 0-1.475.317-2.772.952-3.892.634-1.139 1.521-2.016 2.66-2.632 1.157-.635 2.492-.952 4.004-.952 1.026 0 2.025.159 2.996.476.97.317 1.745.747 2.324 1.288l-1.12 2.94c-.56-.448-1.176-.793-1.848-1.036-.672-.261-1.326-.392-1.96-.392-1.158 0-2.063.355-2.716 1.064-.635.691-.952 1.708-.952 3.052 0 1.363.317 2.399.952 3.108.634.691 1.54 1.036 2.716 1.036.634 0 1.288-.121 1.96-.364.672-.261 1.288-.616 1.848-1.064l1.12 2.94c-.616.541-1.419.971-2.408 1.288-.99.299-2.026.448-3.108.448zm20.266-6.972h-9.352c.074 1.325.42 2.296 1.036 2.912.616.597 1.53.896 2.744.896.728 0 1.456-.121 2.184-.364s1.4-.597 2.016-1.064l1.12 2.856c-.672.541-1.512.971-2.52 1.288-.99.299-1.988.448-2.996.448-2.39 0-4.266-.653-5.628-1.96-1.363-1.325-2.044-3.127-2.044-5.404 0-1.437.289-2.716.868-3.836.597-1.139 1.428-2.016 2.492-2.632 1.064-.635 2.268-.952 3.612-.952 1.997 0 3.574.653 4.732 1.96 1.157 1.288 1.736 3.033 1.736 5.236zm-6.356-4.844c-.803 0-1.456.233-1.96.7-.486.467-.803 1.148-.952 2.044h5.628c-.224-1.829-1.13-2.744-2.716-2.744zm22.205.56v5.516c0 .784.205 1.363.616 1.736.411.355.943.532 1.596.532.411 0 .877-.065 1.4-.196v3.276c-.672.261-1.484.392-2.436.392-1.755 0-3.099-.495-4.032-1.484-.915-.989-1.372-2.38-1.372-4.172v-5.6h-2.688v-3.164h2.688v-3.332l4.228-1.372v4.704h3.612v3.164zm14.546-3.528c3.36 0 5.04 1.988 5.04 5.964v8.596h-4.228v-8.4c0-.989-.187-1.708-.56-2.156-.355-.467-.924-.7-1.708-.7-.934 0-1.68.299-2.24.896s-.84 1.4-.84 2.408v7.952h-4.228v-20.608h4.228v8.344c.504-.747 1.148-1.316 1.932-1.708s1.652-.588 2.604-.588zm22.632.364v14.196h-4.172v-2.1c-.43.728-1.036 1.297-1.82 1.708s-1.671.616-2.66.616c-1.232 0-2.324-.299-3.276-.896-.934-.597-1.671-1.447-2.212-2.548-.523-1.12-.784-2.408-.784-3.864s.261-2.753.784-3.892c.541-1.139 1.288-2.016 2.24-2.632.952-.635 2.034-.952 3.248-.952.989 0 1.876.215 2.66.644s1.39 1.008 1.82 1.736v-2.016zm-7.42 11.2c1.045 0 1.848-.355 2.408-1.064s.84-1.736.84-3.08-.28-2.371-.84-3.08c-.56-.728-1.363-1.092-2.408-1.092-1.046 0-1.858.373-2.436 1.12-.579.747-.868 1.783-.868 3.108s.28 2.343.84 3.052c.578.691 1.4 1.036 2.464 1.036zm16.152-8.036v5.516c0 .784.206 1.363.616 1.736.411.355.943.532 1.596.532.411 0 .878-.065 1.4-.196v3.276c-.672.261-1.484.392-2.436.392-1.754 0-3.098-.495-4.032-1.484-.914-.989-1.372-2.38-1.372-4.172v-5.6h-2.688v-3.164h2.688v-3.332l4.228-1.372v4.704h3.612v3.164zm13.657-3.164h4.228v14.196h-4.228zm4.368-6.664v3.976h-4.508v-3.976zm8.747 21.084c-2.688 0-4.806-.579-6.356-1.736l1.12-2.94c.747.541 1.578.961 2.492 1.26.915.28 1.848.42 2.8.42.728 0 1.288-.112 1.68-.336s.588-.551.588-.98c0-.355-.14-.635-.42-.84s-.774-.383-1.484-.532l-2.324-.532c-1.362-.299-2.37-.775-3.024-1.428-.634-.653-.952-1.521-.952-2.604 0-.877.252-1.661.756-2.352.523-.691 1.242-1.223 2.156-1.596.915-.392 1.97-.588 3.164-.588 1.008 0 1.998.159 2.968.476.971.299 1.839.728 2.604 1.288l-1.176 2.828c-.728-.504-1.474-.887-2.24-1.148-.746-.261-1.474-.392-2.184-.392-.69 0-1.232.121-1.624.364s-.588.579-.588 1.008c0 .317.112.579.336.784.243.187.663.345 1.26.476l2.38.532c1.456.336 2.511.84 3.164 1.512.654.672.98 1.568.98 2.688 0 1.344-.541 2.408-1.624 3.192-1.082.784-2.566 1.176-4.452 1.176zm-316.959 24.608-6.244 14.168h-3.584l-6.16-14.168h4.424l3.64 9.184 3.752-9.184zm13.861 7.42h-9.352c.075 1.325.42 2.296 1.036 2.912.616.597 1.531.896 2.744.896.728 0 1.456-.121 2.184-.364s1.4-.597 2.016-1.064l1.12 2.856c-.672.541-1.512.971-2.52 1.288-.989.299-1.988.448-2.996.448-2.389 0-4.265-.653-5.628-1.96-1.362-1.325-2.044-3.127-2.044-5.404 0-1.437.29-2.716.868-3.836.598-1.139 1.428-2.016 2.492-2.632 1.064-.635 2.268-.952 3.612-.952 1.998 0 3.575.653 4.732 1.96 1.158 1.288 1.736 3.033 1.736 5.236zm-6.356-4.844c-.802 0-1.456.233-1.96.7-.485.467-.802 1.148-.952 2.044h5.628c-.224-1.829-1.129-2.744-2.716-2.744zm17.271-2.94c.597 0 1.101.093 1.512.28l-.028 3.864c-.691-.317-1.382-.476-2.072-.476-1.12 0-1.979.308-2.576.924-.579.597-.868 1.437-.868 2.52v7.42h-4.228v-10.136c0-1.512-.075-2.865-.224-4.06h3.976l.28 2.436c.354-.896.905-1.577 1.652-2.044.765-.485 1.624-.728 2.576-.728zm18.072.336-6.552 14.952c-.803 1.811-1.82 3.136-3.052 3.976-1.214.859-2.707 1.409-4.48 1.652l-.98-3.248c1.306-.28 2.286-.635 2.94-1.064.672-.429 1.194-1.055 1.568-1.876l.42-.924-5.852-13.468h4.424l3.64 9.212 3.752-9.212zm18.033-.364c3.36 0 5.04 1.988 5.04 5.964v8.596h-4.228v-8.4c0-.989-.186-1.708-.56-2.156-.354-.467-.924-.7-1.708-.7-.933 0-1.68.299-2.24.896s-.84 1.4-.84 2.408v7.952h-4.228v-20.608h4.228v8.344c.504-.747 1.148-1.316 1.932-1.708s1.652-.588 2.604-.588zm22.632.364v14.196h-4.172v-2.1c-.429.728-1.036 1.297-1.82 1.708s-1.67.616-2.66.616c-1.232 0-2.324-.299-3.276-.896-.933-.597-1.67-1.447-2.212-2.548-.522-1.12-.784-2.408-.784-3.864s.262-2.753.784-3.892c.542-1.139 1.288-2.016 2.24-2.632.952-.635 2.035-.952 3.248-.952.99 0 1.876.215 2.66.644s1.391 1.008 1.82 1.736v-2.016zm-7.42 11.2c1.046 0 1.848-.355 2.408-1.064s.84-1.736.84-3.08-.28-2.371-.84-3.08c-.56-.728-1.362-1.092-2.408-1.092-1.045 0-1.857.373-2.436 1.12-.578.747-.868 1.783-.868 3.108s.28 2.343.84 3.052c.579.691 1.4 1.036 2.464 1.036zm19.093-11.536c.597 0 1.101.093 1.512.28l-.028 3.864c-.691-.317-1.381-.476-2.072-.476-1.12 0-1.979.308-2.576.924-.579.597-.868 1.437-.868 2.52v7.42h-4.228v-10.136c0-1.512-.075-2.865-.224-4.06h3.976l.28 2.436c.355-.896.905-1.577 1.652-2.044.765-.485 1.624-.728 2.576-.728zm17.175-6.076v20.608h-4.172v-2.1c-.429.728-1.036 1.297-1.82 1.708s-1.671.616-2.66.616c-1.213 0-2.296-.308-3.248-.924-.952-.635-1.699-1.512-2.24-2.632-.523-1.139-.784-2.436-.784-3.892s.261-2.735.784-3.836c.541-1.12 1.279-1.979 2.212-2.576.952-.616 2.044-.924 3.276-.924.952 0 1.82.205 2.604.616.784.392 1.391.943 1.82 1.652v-8.316zm-7.42 17.612c1.045 0 1.848-.355 2.408-1.064.56-.728.84-1.764.84-3.108 0-1.325-.289-2.343-.868-3.052-.56-.728-1.353-1.092-2.38-1.092-1.045 0-1.857.355-2.436 1.064s-.868 1.717-.868 3.024c0 1.344.289 2.389.868 3.136.579.728 1.391 1.092 2.436 1.092zm24.028-8.036v5.516c0 .784.205 1.363.616 1.736.41.355.942.532 1.596.532.41 0 .877-.065 1.4-.196v3.276c-.672.261-1.484.392-2.436.392-1.755 0-3.099-.495-4.032-1.484-.915-.989-1.372-2.38-1.372-4.172v-5.6h-2.688v-3.164h2.688v-3.332l4.228-1.372v4.704h3.612v3.164zm12.557 11.256c-1.512 0-2.837-.299-3.976-.896-1.12-.597-1.988-1.456-2.604-2.576-.597-1.12-.896-2.427-.896-3.92s.299-2.8.896-3.92c.616-1.12 1.484-1.979 2.604-2.576 1.139-.597 2.464-.896 3.976-.896 1.493 0 2.8.299 3.92.896s1.979 1.456 2.576 2.576c.616 1.12.924 2.427.924 3.92s-.308 2.8-.924 3.92c-.597 1.12-1.456 1.979-2.576 2.576s-2.427.896-3.92.896zm0-3.22c1.045 0 1.839-.345 2.38-1.036.56-.691.84-1.736.84-3.136 0-1.381-.28-2.417-.84-3.108-.541-.709-1.335-1.064-2.38-1.064-1.064 0-1.876.355-2.436 1.064-.56.691-.84 1.727-.84 3.108 0 2.781 1.092 4.172 3.276 4.172zm26.678-11.564c1.232 0 2.324.308 3.276.924.952.597 1.689 1.456 2.212 2.576.522 1.101.784 2.38.784 3.836s-.271 2.753-.812 3.892c-.523 1.12-1.26 1.997-2.212 2.632-.952.616-2.035.924-3.248.924-.99 0-1.886-.205-2.688-.616-.784-.429-1.382-1.008-1.792-1.736v2.128h-4.2v-20.608h4.228v8.4c.41-.728 1.008-1.297 1.792-1.708.802-.429 1.689-.644 2.66-.644zm-1.204 11.564c1.045 0 1.848-.364 2.408-1.092s.84-1.773.84-3.136c0-1.307-.28-2.315-.84-3.024s-1.363-1.064-2.408-1.064c-1.046 0-1.858.364-2.436 1.092-.56.709-.84 1.727-.84 3.052 0 1.344.28 2.38.84 3.108.578.709 1.39 1.064 2.436 1.064zm22.928-3.752h-9.352c.074 1.325.42 2.296 1.036 2.912.616.597 1.53.896 2.744.896.728 0 1.456-.121 2.184-.364s1.4-.597 2.016-1.064l1.12 2.856c-.672.541-1.512.971-2.52 1.288-.99.299-1.988.448-2.996.448-2.39 0-4.266-.653-5.628-1.96-1.363-1.325-2.044-3.127-2.044-5.404 0-1.437.289-2.716.868-3.836.597-1.139 1.428-2.016 2.492-2.632 1.064-.635 2.268-.952 3.612-.952 1.997 0 3.574.653 4.732 1.96 1.157 1.288 1.736 3.033 1.736 5.236zm-6.356-4.844c-.803 0-1.456.233-1.96.7-.486.467-.803 1.148-.952 2.044h5.628c-.224-1.829-1.13-2.744-2.716-2.744zm23.234-2.604v14.196h-4.172v-2.1c-.429.728-1.036 1.297-1.82 1.708s-1.671.616-2.66.616c-1.232 0-2.324-.299-3.276-.896-.933-.597-1.671-1.447-2.212-2.548-.523-1.12-.784-2.408-.784-3.864s.261-2.753.784-3.892c.541-1.139 1.288-2.016 2.24-2.632.952-.635 2.035-.952 3.248-.952.989 0 1.876.215 2.66.644s1.391 1.008 1.82 1.736v-2.016zm-7.42 11.2c1.045 0 1.848-.355 2.408-1.064s.84-1.736.84-3.08-.28-2.371-.84-3.08c-.56-.728-1.363-1.092-2.408-1.092s-1.857.373-2.436 1.12-.868 1.783-.868 3.108.28 2.343.84 3.052c.579.691 1.4 1.036 2.464 1.036zm16.153-8.036v5.516c0 .784.205 1.363.616 1.736.411.355.943.532 1.596.532.411 0 .877-.065 1.4-.196v3.276c-.672.261-1.484.392-2.436.392-1.755 0-3.099-.495-4.032-1.484-.915-.989-1.372-2.38-1.372-4.172v-5.6h-2.688v-3.164h2.688v-3.332l4.228-1.372v4.704h3.612v3.164zm10.693 6.524v4.508h-4.564v-4.508z" fill="#36344d"/><path d="m112.118 352.582h-1.853l-1.513-4.029c-.159-.431-.391-.725-.697-.884-.306-.17-.725-.255-1.258-.255h-2.652v5.168h-1.734v-12.104h4.981c1.326 0 2.34.295 3.043.884.714.589 1.071 1.434 1.071 2.533 0 .793-.21 1.468-.629 2.023s-1.014.946-1.785 1.173c.703.125 1.213.623 1.53 1.496zm-4.93-6.579c.884 0 1.541-.17 1.972-.51.431-.351.646-.873.646-1.564s-.215-1.201-.646-1.53c-.419-.34-1.077-.51-1.972-.51h-3.043v4.114zm14.234 2.329h-6.12c.056 2.006.969 3.009 2.737 3.009.986 0 1.887-.323 2.703-.969l.527 1.224c-.386.34-.879.612-1.479.816-.59.193-1.185.289-1.785.289-1.372 0-2.448-.391-3.23-1.173-.782-.793-1.173-1.876-1.173-3.247 0-.873.17-1.649.51-2.329.351-.68.838-1.207 1.462-1.581.623-.374 1.331-.561 2.125-.561 1.156 0 2.062.374 2.72 1.122.668.748 1.003 1.785 1.003 3.111zm-3.689-3.247c-.646 0-1.173.193-1.581.578s-.669.935-.782 1.649h4.539c-.068-.725-.289-1.275-.663-1.649-.374-.385-.879-.578-1.513-.578zm9.382 7.616c-.861 0-1.615-.181-2.261-.544-.635-.363-1.122-.873-1.462-1.53-.34-.669-.51-1.445-.51-2.329s.176-1.666.527-2.346c.363-.68.867-1.207 1.513-1.581s1.4-.561 2.261-.561c.601 0 1.179.102 1.734.306.555.193 1.003.459 1.343.799l-.527 1.241c-.805-.635-1.615-.952-2.431-.952-.827 0-1.473.272-1.938.816-.465.533-.697 1.286-.697 2.261s.232 1.728.697 2.261c.465.521 1.111.782 1.938.782.839 0 1.649-.317 2.431-.952l.527 1.241c-.363.34-.827.606-1.394.799-.555.193-1.139.289-1.751.289zm8.449 0c-.838 0-1.575-.181-2.21-.544-.634-.363-1.127-.878-1.479-1.547-.34-.669-.51-1.451-.51-2.346s.17-1.677.51-2.346c.352-.68.845-1.201 1.479-1.564.635-.363 1.372-.544 2.21-.544.828 0 1.559.181 2.193.544.635.363 1.122.884 1.462 1.564.352.669.527 1.451.527 2.346s-.175 1.677-.527 2.346c-.34.669-.827 1.184-1.462 1.547-.634.363-1.365.544-2.193.544zm-.017-1.36c.794 0 1.4-.261 1.819-.782.42-.521.629-1.286.629-2.295 0-.986-.215-1.745-.646-2.278-.419-.533-1.014-.799-1.785-.799-.782 0-1.388.266-1.819.799-.43.533-.646 1.292-.646 2.278 0 1.009.21 1.774.629 2.295.431.521 1.037.782 1.819.782zm15.981-7.531c1.904 0 2.856 1.145 2.856 3.434v5.338h-1.717v-5.253c0-.737-.13-1.275-.391-1.615-.249-.34-.657-.51-1.224-.51-.657 0-1.178.227-1.564.68-.374.453-.561 1.071-.561 1.853v4.845h-1.717v-5.253c0-.737-.13-1.275-.391-1.615-.249-.34-.657-.51-1.224-.51-.657 0-1.178.227-1.564.68-.385.453-.578 1.071-.578 1.853v4.845h-1.7v-6.154c0-.895-.045-1.7-.136-2.414h1.598l.153 1.428c.25-.521.607-.924 1.071-1.207.465-.283 1.009-.425 1.632-.425 1.326 0 2.193.55 2.601 1.649.261-.51.641-.912 1.139-1.207.51-.295 1.083-.442 1.717-.442zm15.091 0c1.904 0 2.856 1.145 2.856 3.434v5.338h-1.717v-5.253c0-.737-.13-1.275-.391-1.615-.249-.34-.657-.51-1.224-.51-.657 0-1.179.227-1.564.68-.374.453-.561 1.071-.561 1.853v4.845h-1.717v-5.253c0-.737-.13-1.275-.391-1.615-.249-.34-.657-.51-1.224-.51-.657 0-1.179.227-1.564.68s-.578 1.071-.578 1.853v4.845h-1.7v-6.154c0-.895-.045-1.7-.136-2.414h1.598l.153 1.428c.249-.521.606-.924 1.071-1.207s1.009-.425 1.632-.425c1.326 0 2.193.55 2.601 1.649.261-.51.64-.912 1.139-1.207.51-.295 1.082-.442 1.717-.442zm12.626 4.522h-6.12c.057 2.006.969 3.009 2.737 3.009.986 0 1.887-.323 2.703-.969l.527 1.224c-.385.34-.878.612-1.479.816-.589.193-1.184.289-1.785.289-1.371 0-2.448-.391-3.23-1.173-.782-.793-1.173-1.876-1.173-3.247 0-.873.17-1.649.51-2.329.351-.68.839-1.207 1.462-1.581s1.332-.561 2.125-.561c1.156 0 2.063.374 2.72 1.122.669.748 1.003 1.785 1.003 3.111zm-3.689-3.247c-.646 0-1.173.193-1.581.578s-.669.935-.782 1.649h4.539c-.068-.725-.289-1.275-.663-1.649-.374-.385-.878-.578-1.513-.578zm10.215-1.275c2.051 0 3.077 1.145 3.077 3.434v5.338h-1.717v-5.236c0-.748-.147-1.292-.442-1.632-.283-.34-.742-.51-1.377-.51-.725 0-1.309.227-1.751.68-.431.453-.646 1.06-.646 1.819v4.879h-1.7v-6.154c0-.895-.045-1.7-.136-2.414h1.598l.153 1.479c.272-.544.663-.958 1.173-1.241.521-.295 1.111-.442 1.768-.442zm13.358-3.74v12.512h-1.7v-1.462c-.249.51-.623.901-1.122 1.173-.487.272-1.059.408-1.717.408-.736 0-1.394-.187-1.972-.561s-1.031-.895-1.36-1.564c-.317-.68-.476-1.462-.476-2.346s.159-1.66.476-2.329c.318-.669.76-1.184 1.326-1.547.578-.363 1.247-.544 2.006-.544.646 0 1.213.136 1.7.408.499.272.873.657 1.122 1.156v-5.304zm-4.148 11.271c.782 0 1.383-.266 1.802-.799.431-.544.646-1.303.646-2.278s-.215-1.728-.646-2.261c-.419-.544-1.014-.816-1.785-.816-.782 0-1.394.266-1.836.799-.43.533-.646 1.281-.646 2.244 0 .975.216 1.74.646 2.295.442.544 1.049.816 1.819.816zm13.981-3.009h-6.12c.056 2.006.969 3.009 2.737 3.009.986 0 1.887-.323 2.703-.969l.527 1.224c-.386.34-.879.612-1.479.816-.59.193-1.185.289-1.785.289-1.372 0-2.448-.391-3.23-1.173-.782-.793-1.173-1.876-1.173-3.247 0-.873.17-1.649.51-2.329.351-.68.838-1.207 1.462-1.581.623-.374 1.331-.561 2.125-.561 1.156 0 2.062.374 2.72 1.122.668.748 1.003 1.785 1.003 3.111zm-3.689-3.247c-.646 0-1.173.193-1.581.578s-.669.935-.782 1.649h4.539c-.068-.725-.289-1.275-.663-1.649-.374-.385-.879-.578-1.513-.578zm13.496-5.015v12.512h-1.7v-1.462c-.249.51-.623.901-1.122 1.173-.487.272-1.06.408-1.717.408-.737 0-1.394-.187-1.972-.561s-1.031-.895-1.36-1.564c-.317-.68-.476-1.462-.476-2.346s.159-1.66.476-2.329.759-1.184 1.326-1.547c.578-.363 1.247-.544 2.006-.544.646 0 1.213.136 1.7.408.499.272.873.657 1.122 1.156v-5.304zm-4.148 11.271c.782 0 1.383-.266 1.802-.799.431-.544.646-1.303.646-2.278s-.215-1.728-.646-2.261c-.419-.544-1.014-.816-1.785-.816-.782 0-1.394.266-1.836.799-.431.533-.646 1.281-.646 2.244 0 .975.215 1.74.646 2.295.442.544 1.048.816 1.819.816zm15.742-7.531c.748 0 1.411.181 1.989.544s1.025.878 1.343 1.547c.317.669.476 1.445.476 2.329s-.165 1.666-.493 2.346c-.318.669-.765 1.19-1.343 1.564s-1.236.561-1.972.561c-.658 0-1.236-.136-1.734-.408-.488-.283-.856-.686-1.105-1.207v1.496h-1.7v-12.512h1.7v5.355c.249-.51.617-.907 1.105-1.19.498-.283 1.076-.425 1.734-.425zm-.391 7.531c.77 0 1.371-.272 1.802-.816.43-.555.646-1.32.646-2.295 0-.963-.216-1.711-.646-2.244-.431-.533-1.032-.799-1.802-.799-.782 0-1.389.266-1.819.799-.42.533-.629 1.292-.629 2.278s.209 1.745.629 2.278c.43.533 1.037.799 1.819.799zm13.881-7.327-3.995 9.265c-.442 1.009-.998 1.745-1.666 2.21-.658.476-1.474.793-2.448.952l-.374-1.326c.804-.181 1.411-.419 1.819-.714.419-.283.753-.714 1.003-1.292l.306-.714-3.604-8.381h1.819l2.686 6.63 2.737-6.63zm3.13.187v2.04h-2.04v-2.04zm0 6.341v2.04h-2.04v-2.04z" fill="#727586"/><g clip-path="url(#q)"><path d="m136.178 368.582h-20.465l-11.71 7.161h44.212z" fill="url(#c)"/><path d="m101 398.714h34.233l13.672 10.868-3.475-10.868h6.478v-9.248h-50.859zm47.227-5.53c.36 0 .705.142.959.394s.397.593.397.95c0 .356-.143.698-.397.95s-.599.393-.959.393c-.361 0-.707-.141-.963-.392-.257-.252-.402-.594-.405-.951.003-.356.147-.695.4-.947.254-.251.597-.394.956-.397zm-19.145-1.955h2.422v2.399h-2.422zm0 3.155h2.422v2.399h-2.422zm-3.112-3.155h2.422v2.399h-2.422zm0 3.155h2.422v2.399h-2.422zm-3.028-3.155h2.422v2.399h-2.422zm0 3.155h2.422v2.399h-2.422zm-3.233-3.155h2.422v2.399h-2.422zm0 3.155h2.422v2.399h-2.422zm-3.221-3.155h2.422v2.399h-2.422zm0 3.155h2.422v2.399h-2.422zm-3.197-3.155h2.422v2.399h-2.422zm0 3.155h2.422v2.399h-2.422zm-3.172-3.155h2.421v2.399h-2.421zm0 3.155h2.421v2.399h-2.421zm-3.306-3.131h2.422v2.399h-2.422zm0 3.155h2.422v2.399h-2.422zm-2.798-1.2c.361 0 .707.141.964.393.256.252.402.593.405.951-.003.357-.149.699-.405.951-.257.251-.603.392-.964.392-.359 0-.704-.141-.959-.393-.254-.252-.397-.594-.397-.95-.003-.178.029-.354.095-.519s.164-.315.289-.442c.125-.128.275-.229.439-.299.165-.069.342-.106.521-.108z" fill="url(#d)"/><path d="m101 378.154v9.249h50.86v-9.249zm3.003 6.058c-.359 0-.704-.142-.959-.394-.254-.252-.397-.593-.397-.95s.142-.7.396-.954.599-.398.96-.401c.362.003.708.147.964.4.256.254.401.597.405.955-.004.358-.149.699-.405.951-.257.252-.603.393-.964.393zm5.135 1.199h-2.422v-2.399h2.422zm0-3.154h-2.422v-2.4h2.422zm3.306 3.118h-2.422v-2.399h2.422zm0-3.154h-2.422v-2.399h2.422zm3.172 3.154h-2.422v-2.399h2.422zm0-3.154h-2.422v-2.399h2.422zm3.185 3.154h-2.422v-2.399h2.422zm0-3.154h-2.422v-2.399h2.422zm3.233 3.154h-2.422v-2.399h2.422zm0-3.154h-2.422v-2.399h2.422zm3.233 3.154h-2.421v-2.399h2.421zm0-3.154h-2.421v-2.399h2.421zm3.028 3.154h-2.422v-2.399h2.422zm0-3.154h-2.422v-2.399h2.422zm3.112 3.154h-2.422v-2.399h2.422zm0-3.154h-2.422v-2.399h2.422zm16.808 1.991c-.361 0-.707-.141-.964-.393-.256-.252-.401-.593-.405-.951.004-.358.149-.701.405-.955.256-.253.602-.397.964-.4.361.003.705.147.96.401.254.254.396.597.396.954s-.143.698-.397.95c-.255.252-.6.394-.959.394z" fill="url(#e)"/><g fill="#000"><path d="m273.087 384.524c.363-2.399.363-2.399-1.865-2.399-.327 0-.642 0-.969 0-1.041-.072-1.986 0-1.973 1.451-.163-.088-.32-.184-.473-.288-.793-.698-1.756-1.181-2.793-1.401-1.038-.221-2.116-.172-3.128.142-1.013.314-1.927.882-2.653 1.649-.725.767-1.238 1.707-1.489 2.729-.66 2.257-.66 4.653 0 6.909.231.976.752 1.861 1.497 2.54.746.678 1.68 1.118 2.681 1.263 1.034.271 2.125.245 3.145-.073 1.02-.319 1.929-.917 2.619-1.727v2.232c.003.457-.029.914-.097 1.367-.033.669-.322 1.3-.808 1.765s-1.132.731-1.807.742c-1.419.039-2.837-.114-4.214-.456-.775-.168-1.211-.216-1.381.648-.169.864-.835 1.667.545 1.859 1.923.369 3.878.55 5.837.54 3.076-.204 4.844-1.991 5.134-5.014.146-1.619.206-3.245.182-4.87 0-3.095 0-6.202 0-9.428zm-5.401 4.558v2.399c-.031.82-.367 1.6-.944 2.189s-1.353.946-2.18 1.002c-.385.087-.785.092-1.172.016-.388-.077-.754-.233-1.077-.46-.322-.226-.592-.517-.793-.854s-.328-.712-.373-1.101c-.213-1.778-.205-3.575.024-5.35.084-.607.367-1.17.804-1.603s1.006-.713 1.618-.796c.688-.137 1.4-.099 2.069.111.67.21 1.274.584 1.758 1.088.212.275.319.615.303.96-.013.78-.037 1.595-.037 2.399z"/><path d="m182.932 378.454c.124.011.249-.003.367-.04.119-.037.229-.097.324-.176.08-.094.14-.203.177-.32.038-.118.052-.241.041-.364-.007-.333-.077-.663-.206-.971v-.132h-6.624c-.244-.023-.488.05-.678.204-.082.081-.146.178-.186.286-.039.108-.055.223-.044.338.008.353.078.701.206 1.031l.06.144h1.526c0 1.404.097 3.683.109 6.801h-8.683c0-3.118 0-5.409.097-6.801h.884c.124.012.249-.001.368-.038.118-.037.228-.098.323-.178.082-.093.144-.201.181-.319.038-.118.05-.242.037-.365-.003-.333-.068-.662-.194-.971v-.132h-6.721c-.121-.013-.243-.001-.36.034-.116.035-.225.092-.318.17-.084.08-.149.177-.191.285s-.059.223-.051.339c.007.354.081.704.218 1.031l.06.144h1.671c.073 1.416.109 3.599.121 6.574 0 5.541 0 9.116-.121 10.639h-1.029c-.244-.019-.486.054-.678.204-.083.081-.148.178-.19.286-.041.108-.059.223-.052.338.007.358.081.712.218 1.044l.06.132h6.6c.124.012.249-.001.367-.038.119-.037.229-.098.323-.178.084-.092.147-.201.184-.319.038-.118.049-.242.034-.365-.001-.329-.067-.655-.194-.96v-.144h-1.513c-.073-1.271-.109-3.97-.121-8.013h8.682c0 4.055 0 6.742-.109 8.013h-.884c-.244-.018-.486.055-.678.204-.081.082-.143.18-.183.288-.04.107-.056.222-.047.336.008.357.078.71.206 1.044l.06.132h6.612c.124.01.248-.003.367-.04.118-.037.228-.097.323-.176.081-.094.142-.203.18-.32.037-.118.05-.241.038-.364-.005-.33-.075-.656-.206-.96v-.144h-1.683c-.072-1.523-.109-5.038-.109-10.46 0-3.058 0-5.337.097-6.753z"/><path d="m193.916 381.933c-1.063-.053-2.124.136-3.102.552s-1.847 1.048-2.541 1.847c-1.399 1.856-2.089 4.142-1.95 6.453-.143 1.947.434 3.878 1.623 5.434.663.648 1.46 1.147 2.335 1.461.876.315 1.81.438 2.739.362 1.062.053 2.123-.136 3.101-.552s1.848-1.047 2.542-1.847c1.401-1.85 2.096-4.132 1.961-6.441.145-1.95-.432-3.886-1.622-5.446-.665-.65-1.463-1.15-2.341-1.465s-1.815-.437-2.745-.358zm2.034 12.367c-.24.397-.587.719-1.002.931s-.882.305-1.347.268c-.523.045-1.048-.065-1.508-.317-.459-.252-.833-.635-1.071-1.098-.611-1.436-.88-2.991-.788-4.546-.088-1.353.17-2.707.751-3.935.24-.397.587-.719 1.002-.931s.882-.305 1.347-.268c.524-.045 1.049.065 1.508.317.46.253.833.635 1.072 1.098.611 1.44.88 2.999.787 4.558.088 1.35-.171 2.699-.751 3.923z"/><path d="m209.84 388.47c-.956-.299-1.861-.736-2.689-1.295-.179-.147-.323-.33-.424-.537-.1-.207-.154-.433-.157-.663-.016-.21.021-.421.107-.614.087-.192.221-.361.389-.489.492-.306 1.069-.449 1.647-.408 1.627.11 3.216.538 4.675 1.259l.145.072.109-.12c.5-.524.792-1.21.823-1.931 0-.672-.448-1.2-1.344-1.463-1.067-.297-2.174-.43-3.281-.396-1.772-.123-3.539.295-5.062 1.199-.552.358-1.003.848-1.312 1.425-.309.576-.466 1.221-.456 1.874-.032.914.288 1.806.896 2.495.897.836 1.973 1.459 3.148 1.823 1.122.414 2.211.911 3.258 1.488.287.143.528.363.697.634.168.271.258.583.259.901.02.246-.025.493-.132.716-.106.223-.269.414-.473.556-.602.331-1.287.481-1.974.431-1.684-.044-3.337-.454-4.844-1.199l-.157-.072-.097.132c-.407.459-.639 1.045-.654 1.655-.003.393.139.774.4 1.07.262.297.623.488 1.017.538 1.192.261 2.412.378 3.633.347 1.731.098 3.451-.32 4.94-1.199.576-.386 1.042-.912 1.354-1.527s.459-1.3.427-1.988c.019-.536-.079-1.07-.288-1.565s-.524-.939-.923-1.302c-1.101-.823-2.338-1.448-3.657-1.847z"/><path d="m227.531 382.317h-4.989v-.408c.101-.903.019-1.817-.242-2.687-.183-.304-.442-.555-.751-.732-.379-.217-.786-.383-1.211-.492l-.205-.06-1.211 4.379h-.884c-.131-.01-.263.006-.388.047-.125.042-.24.107-.339.192-.168.197-.251.451-.23.708.001.384.067.765.194 1.128v.156h1.513c.097 1.751.146 3.598.146 5.446v3.598c-.073.597-.018 1.203.162 1.777.179.575.479 1.106.879 1.558.921.684 2.063 1.008 3.209.911.978.039 1.956-.058 2.906-.287.301-.057.571-.217.764-.452.193-.234.295-.529.29-.832-.004-.428-.134-.845-.375-1.199l-.109-.168-.17.084c-.691.379-1.463.589-2.252.611-.251-.011-.494-.087-.706-.22-.212-.132-.386-.317-.505-.535-.391-1.05-.544-2.172-.448-3.287v-7.029h4.177c.291.032.583-.04.824-.204.091-.1.16-.218.202-.346s.055-.264.04-.398c.005-.408-.061-.813-.194-1.199z"/><path d="m236.589 395.667h-1.562c0-1.355-.097-2.95-.097-4.798v-6.933c.034-.371.034-.745 0-1.116 0-.204-.181-.467-.654-.599-.558-.104-1.127-.144-1.695-.12-.81-.03-1.621.018-2.422.144-.228.038-.433.158-.576.338-.143.179-.214.405-.199.633-.003.305.081.605.242.864v.096h.121c.283-.008.565.029.836.108.098.034.187.089.26.162.074.072.13.161.164.258.162.495.239 1.014.23 1.535 0 .768.06 2.327.06 4.63 0 1.788 0 3.383-.096 4.798h-.933c-.259-.018-.515.064-.714.228-.16.178-.243.41-.23.648.007.341.077.679.205.996v.132h6.2c.283.026.566-.046.8-.204.091-.096.159-.209.201-.334.042-.124.056-.256.041-.386.001-.332-.074-.66-.218-.96z"/><path d="m232.642 379.989c.69.054 1.375-.147 1.925-.563.21-.189.376-.421.487-.68s.164-.539.155-.82c.008-.244-.035-.488-.126-.715-.092-.227-.231-.433-.407-.604-.475-.375-1.079-.551-1.683-.492-.656-.035-1.304.161-1.829.552-.222.185-.399.416-.518.678-.12.261-.178.546-.172.833-.015.25.026.5.12.733.094.232.239.441.425.611.467.344 1.043.51 1.623.467z"/><path d="m254.778 395.667h-.158c-.702 0-.847-.252-.896-.348-.048-.095-.218-1.547-.218-8.588.081-.663.024-1.336-.165-1.977s-.508-1.238-.937-1.754c-.914-.72-2.068-1.075-3.233-.995-.928.023-1.848.189-2.725.491-.944.311-1.847.733-2.688 1.26.044-.467.044-.937 0-1.403v-.192h-.194c-1.385-.025-2.77.059-4.141.252-.15.052-.277.153-.363.285-.085.133-.124.29-.109.446.004.337.082.669.23.972v.12h.193c.24-.031.483.01.698.116.216.107.395.276.513.484.158.299.339 1.439.339 5.11 0 2.231 0 4.162-.109 5.721h-.859c-.127-.01-.254.004-.375.043-.121.04-.232.102-.328.185-.084.085-.149.187-.191.298-.042.112-.059.231-.051.35.006.343.08.681.218.996v.132h6.188c.279.032.56-.041.787-.204.091-.096.16-.209.202-.334.041-.124.055-.256.04-.386.007-.328-.063-.652-.206-.948v-.132h-1.646c0-1.439-.097-3.034-.097-4.798v-3.215c-.049-.437.001-.879.148-1.295.147-.415.386-.792.699-1.104.594-.45 1.324-.687 2.071-.671.383-.033.769.036 1.116.201.347.164.643.418.858.734.542 1.285.762 2.68.642 4.067v6.561c-.03.349.041.698.206 1.008.092.125.212.227.351.3.138.073.291.114.448.12h2.64c.366.024.733-.029 1.077-.156.127-.077.23-.187.297-.318.066-.132.093-.28.079-.426-.003-.328-.064-.653-.182-.96z"/></g><path d="m293.6 395.667h-1.356c-.69-1.667-1.974-5.242-3.826-10.651-2.907-8.469-3.076-8.565-3.209-8.637-.676-.174-1.377-.227-2.071-.156-.448-.041-.898.052-1.293.265-.394.214-.716.539-.923.934-.376.756-1.332 3.491-2.919 8.397-1.513 4.678-2.627 8.001-3.305 9.86h-.739c-.244-.018-.486.055-.678.204-.081.082-.144.18-.183.288-.04.107-.056.222-.047.336.003.352.068.702.193 1.032v.144h5.813c.124.012.249-.001.367-.038.119-.037.229-.098.323-.178.084-.092.147-.201.184-.319.038-.118.049-.242.034-.365-.001-.329-.067-.655-.194-.96v-.144h-1.32c.17-.935.582-2.543 1.211-4.798h6.612c.69 2.243 1.151 3.851 1.369 4.798h-.558c-.243-.018-.485.055-.678.204-.083.081-.148.178-.189.286-.042.108-.06.223-.053.338.007.358.081.712.218 1.044l.061.132h6.527c.123.01.248-.003.366-.04.119-.037.229-.097.324-.176.081-.094.142-.203.18-.32.037-.118.05-.241.038-.364-.001-.329-.067-.655-.194-.96zm-10.789-15.294c.278.696.981 2.699 2.7 8.121h-5.207c1.587-5.41 2.24-7.413 2.507-8.121z" fill="url(#f)"/><path d="m309.754 395.643h-.157c-.085 0-.363.072-.581-.683-.252-2.23-.337-4.475-.255-6.718v-10.916c.011-.373-.013-.746-.072-1.115-.035-.151-.115-.287-.23-.392-.114-.105-.258-.173-.412-.196-.563-.103-1.136-.143-1.707-.12-.871-.057-1.744-.013-2.604.132-.169.052-.315.161-.412.307-.097.147-.14.322-.121.497.004.347.078.69.218 1.007v.132h.145c.301-.007.6.038.884.132.104.059.194.138.265.233s.121.204.147.319c.129.579.198 1.17.206 1.763v2.136c-.278-.072-.581-.12-.884-.168-.506-.069-1.015-.101-1.526-.096-1.075-.075-2.153.092-3.153.488-1.001.397-1.897 1.013-2.623 1.803-1.405 1.906-2.086 4.242-1.925 6.597 0 2.603.484 4.462 1.465 5.53.534.557 1.185.992 1.906 1.274.722.282 1.497.404 2.272.357.868.002 1.733-.119 2.567-.359.847-.266 1.659-.628 2.422-1.08.158.397.374.769.642 1.104.104.108.23.193.37.251.139.058.29.087.441.084.6-.031 1.19-.165 1.744-.395.496-.192 1.211-.492 1.211-1.008-.006-.286-.094-.565-.255-.804zm-10.002-10.064c.266-.403.637-.728 1.074-.939.437-.212.924-.301 1.408-.26.591-.007 1.178.074 1.744.24.417.121.822.277 1.211.467v6.082c.087 1.016-.008 2.039-.278 3.023-.216.415-.572.742-1.005.924-.535.246-1.118.373-1.708.371-.505.03-1.006-.093-1.439-.352-.432-.259-.775-.643-.983-1.099-.571-1.324-.832-2.76-.763-4.198-.128-1.459.126-2.926.739-4.259z" fill="url(#g)"/><path d="m327.24 382.317h-4.165c-.134-.011-.269.006-.396.05-.127.043-.244.112-.343.201-.181.219-.268.499-.242.78.001.338.071.673.206.984v.132h.714c-.391 2.006-.896 3.988-1.514 5.937-.75 2.519-1.114 3.659-1.295 4.163-.182-.492-.533-1.584-1.211-3.959-.848-2.915-1.369-4.87-1.55-5.793-.092-.631-.25-1.25-.472-1.848-.143-.285-.383-.511-.679-.635-.437-.142-.896-.211-1.356-.204-.911-.039-1.823.009-2.724.144-.187.036-.355.137-.475.284-.119.147-.183.331-.179.519.006.343.08.681.218.996l.06.132h.194c.262-.008.523.024.775.096.189.08.344.225.436.408.235.43.433.88.593 1.343.254.648.945 2.723 2.059 6.19 1.695 5.254 1.792 5.386 1.84 5.458.049.072.206.251 2.144.251.345.032.694-.021 1.014-.153.321-.131.604-.338.826-.602.956-1.929 1.742-3.936 2.35-5.998 1.138-3.347 1.913-5.59 2.3-6.681h.097c.295.023.59-.053.836-.216.102-.106.18-.233.228-.372s.065-.286.05-.432c.002-.347-.072-.691-.218-1.008z" fill="url(#h)"/><path d="m336.25 395.667h-1.55c-.061-1.355-.097-2.95-.097-4.798v-6.933c.027-.371.027-.744 0-1.116-.04-.151-.122-.288-.238-.395-.116-.106-.26-.177-.416-.204-.559-.104-1.128-.144-1.695-.12-.81-.031-1.622.017-2.422.144-.228.038-.433.158-.576.338-.144.179-.215.405-.199.633-.002.303.077.601.23.864l.072.096h.122c.282-.007.564.029.835.108.098.034.187.089.26.162.074.072.13.161.164.258.156.497.233 1.015.23 1.535 0 .768.061 2.327.061 4.63 0 1.788 0 3.383-.097 4.798h-.933c-.259-.019-.515.063-.714.228-.082.087-.144.189-.184.3-.04.112-.055.23-.046.348.007.341.077.679.206.996v.132h6.236c.282.026.565-.046.799-.204.091-.096.16-.209.202-.334.041-.124.055-.256.04-.386.001-.332-.073-.66-.218-.96z" fill="url(#i)"/><path d="m332.314 379.989c.69.054 1.376-.147 1.926-.563.21-.189.376-.421.487-.68s.163-.539.154-.82c.009-.244-.034-.488-.126-.715s-.23-.433-.406-.604c-.243-.19-.521-.329-.818-.412-.297-.082-.608-.105-.914-.068-.656-.034-1.303.161-1.829.552-.2.194-.356.428-.458.687-.103.258-.148.535-.135.812-.013.251.03.501.127.734.096.232.243.44.43.61.45.33 1.003.495 1.562.467z" fill="url(#j)"/><path d="m350.503 394.276-.158.084c-1.227.696-2.597 1.106-4.008 1.199-.588.066-1.183-.035-1.717-.29-.533-.254-.983-.653-1.298-1.149-.645-1.355-.936-2.847-.848-4.342-.097-1.406.205-2.81.872-4.055.32-.44.751-.788 1.251-1.01.5-.221 1.05-.307 1.595-.249 1.356.1 2.67.511 3.838 1.199l.158.084.121-.144c.44-.526.684-1.187.69-1.871-.017-.301-.129-.589-.32-.824-.191-.234-.452-.404-.746-.483-.967-.316-1.986-.45-3.003-.396-1.154-.088-2.314.071-3.4.466-1.087.395-2.075 1.018-2.897 1.825-1.487 1.862-2.225 4.204-2.07 6.573 0 2.591.557 4.45 1.671 5.542s2.967 1.643 5.534 1.643c1.227.015 2.45-.143 3.633-.467 1.211-.336 1.755-.852 1.755-1.536-.009-.566-.205-1.113-.557-1.559z" fill="url(#k)"/><path d="m366.112 389.946c.432-.589.63-1.315.557-2.04.073-.819-.018-1.644-.267-2.428s-.653-1.512-1.186-2.142c-1.221-1.025-2.801-1.529-4.396-1.403-1.039-.05-2.077.131-3.036.53-.96.398-1.817 1.004-2.51 1.773-1.406 1.788-2.108 4.022-1.974 6.285 0 2.663.593 4.595 1.78 5.734 1.187 1.14 3.124 1.703 5.8 1.703 1.308.018 2.613-.119 3.888-.407 1.21-.3 1.864-.852 1.864-1.644-.009-.293-.078-.581-.203-.847s-.303-.504-.523-.7l-.121-.12-.146.096c-1.253.776-2.699 1.191-4.177 1.199-.613.067-1.233-.018-1.804-.249-.571-.23-1.075-.598-1.466-1.07-.661-1.084-.997-2.332-.969-3.599h6.576c.411.045.827.009 1.224-.107.397-.115.767-.307 1.089-.564zm-5.873-5.542c.383-.025.767.031 1.126.166.36.134.686.344.956.613.504.628.754 1.419.703 2.22.017.247-.029.494-.133.719 0 0-.109.144-.897.228-.593.06-1.743.096-3.414.096h-1.332c-.015-1.075.27-2.134.823-3.059.25-.33.579-.593.957-.765.379-.171.795-.247 1.211-.218z" fill="url(#l)"/><path d="m373.886 394.024c-.638-.034-1.268.143-1.792.504-.209.184-.377.409-.494.661-.117.251-.18.524-.186.801-.005.277.047.552.153.808.107.256.265.488.466.681.54.375 1.195.553 1.853.503.643.033 1.279-.14 1.816-.491.223-.175.401-.4.519-.657s.173-.537.159-.819c.018-.277-.029-.555-.138-.811-.11-.256-.278-.484-.491-.664-.543-.38-1.202-.562-1.865-.516z" fill="url(#m)"/><path d="m392.982 394.276-.169.084c-1.227.696-2.598 1.106-4.008 1.199-.589.064-1.183-.037-1.716-.291-.533-.255-.983-.653-1.3-1.148-.639-1.356-.926-2.849-.835-4.342-.104-1.42.194-2.841.86-4.103.321-.441.755-.79 1.257-1.011s1.054-.307 1.6-.248c1.353.101 2.663.511 3.827 1.199l.17.084.109-.144c.44-.526.684-1.187.69-1.871-.015-.3-.124-.588-.313-.823-.189-.234-.449-.404-.741-.484-.972-.315-1.994-.449-3.015-.396-1.154-.088-2.314.071-3.4.466-1.087.395-2.075 1.018-2.897 1.825-1.467 1.853-2.196 4.175-2.046 6.525 0 2.591.569 4.451 1.671 5.542 1.102 1.092 2.967 1.643 5.534 1.643 1.227.013 2.45-.144 3.633-.467 1.15-.336 1.743-.852 1.743-1.536-.011-.563-.202-1.109-.545-1.559z" fill="url(#n)"/><path d="m403.36 381.933c-1.063-.053-2.124.136-3.102.552s-1.847 1.048-2.541 1.847c-1.398 1.856-2.089 4.142-1.949 6.453-.144 1.947.433 3.878 1.622 5.434.663.648 1.46 1.147 2.336 1.461.876.315 1.81.438 2.738.362 1.063.053 2.124-.136 3.102-.552s1.847-1.047 2.541-1.847c1.419-1.843 2.131-4.126 2.01-6.441.145-1.95-.432-3.886-1.622-5.446-.67-.657-1.477-1.16-2.364-1.475s-1.833-.434-2.771-.348zm2.034 12.367c-.239.397-.586.719-1.002.931-.415.212-.881.305-1.347.268-.525.056-1.055-.046-1.521-.292-.467-.245-.848-.624-1.094-1.087-.611-1.436-.88-2.991-.787-4.546-.089-1.354.169-2.707.75-3.935.24-.397.587-.719 1.002-.931s.882-.305 1.348-.268c.523-.045 1.048.065 1.507.317.46.253.833.635 1.072 1.098.611 1.44.88 2.999.787 4.558.093 1.335-.153 2.671-.715 3.887z" fill="url(#o)"/><path d="m436.818 395.811v-.144h-.157c-.702 0-.848-.252-.896-.348-.049-.095-.218-1.547-.218-8.588.08-.664.024-1.336-.165-1.977-.19-.641-.508-1.238-.937-1.754-.862-.704-1.961-1.059-3.076-.995-.896.021-1.783.183-2.628.479-.921.316-1.799.743-2.615 1.272-.241-.491-.614-.906-1.078-1.2-.738-.408-1.577-.603-2.422-.563-.913.017-1.817.184-2.676.491-.919.316-1.797.739-2.616 1.26.045-.467.045-.937 0-1.403v-.192h-.193c-1.385-.025-2.77.059-4.142.252-.149.052-.277.153-.363.285-.085.133-.124.29-.109.446 0 .336.074.668.218.972v.12h.145c.239-.031.482.01.698.116.216.107.395.275.513.484.158.299.339 1.439.339 5.11 0 2.231 0 4.162-.121 5.721h-.848c-.126-.01-.253.004-.374.043-.121.04-.232.102-.328.185-.084.085-.15.187-.191.298-.042.112-.059.231-.051.35.006.343.08.681.218.996v.132h5.728c.278.03.559-.043.787-.204.091-.096.159-.209.201-.334.042-.124.056-.256.041-.386.001-.327-.069-.65-.206-.948v-.132h-1.211c0-1.439-.097-3.034-.097-4.798v-3.215c-.049-.437.002-.879.149-1.295.146-.415.385-.792.699-1.104.497-.414 1.119-.65 1.768-.671.383-.032.768.038 1.115.203.347.164.643.417.859.732.536 1.286.752 2.681.629 4.067 0 2.531 0 4.57-.096 5.997h-.315c-.259-.018-.515.064-.715.228-.156.179-.234.412-.218.648.003.341.069.678.194.996v.132h5.582c.287.029.574-.043.812-.204.088-.097.155-.211.197-.335.041-.124.057-.255.045-.385.003-.334-.076-.663-.23-.96v-.12h-1.683c-.073-1.271-.097-3.946-.097-7.953-.052-.437-.002-.88.145-1.296.146-.416.387-.793.702-1.103.492-.414 1.111-.651 1.756-.671.385-.033.772.037 1.121.201.349.165.648.418.865.734.531 1.288.746 2.681.63 4.067v6.561c-.03.349.042.698.206 1.008.093.125.213.227.351.3s.292.114.448.12h2.64c.366.024.734-.029 1.078-.156.127-.077.229-.187.296-.318.066-.132.094-.28.079-.426-.017-.284-.079-.563-.182-.828z" fill="url(#p)"/></g><g fill="#c5cde9"><path d="m23.5585 17.4629 15.2742 12.3071c-6.0406 6.1099-10.4417 11.958-13.2031 17.5442-2.5888 5.4117-3.8832 11.2597-3.8832 17.5442l-8.8021-9.6886h29.5128v42.4204h-42.45697092l-.00000236-26.971c-.00000087-9.9504 1.72589328-19.028 5.17767328-27.2328 3.62437-8.3793 9.7513-17.0205 18.3807-25.9235zm54.1067 0 15.2742 12.3071c-6.0406 6.1099-10.4417 11.958-13.2031 17.5442-2.5888 5.4117-3.8832 11.2597-3.8832 17.5442l-8.8021-9.6886h29.5128v42.4204h-42.457v-26.971c0-9.9504 1.7259-19.028 5.1777-27.2328 3.6244-8.3793 9.7513-17.0205 18.3807-25.9235z"/><path d="m541.442 553.699-15.274-12.307c6.04-6.11 10.441-11.958 13.203-17.544 2.588-5.412 3.883-11.26 3.883-17.544l8.802 9.688h-29.513v-42.42h42.457v26.971c0 9.95-1.726 19.028-5.178 27.233-3.624 8.379-9.751 17.02-18.38 25.923zm-54.107 0-15.274-12.307c6.04-6.11 10.442-11.958 13.203-17.544 2.589-5.412 3.883-11.26 3.883-17.544l8.802 9.688h-29.513v-42.42h42.457v26.971c0 9.95-1.725 19.028-5.177 27.233-3.625 8.379-9.752 17.02-18.381 25.923z"/></g></svg>