<svg xmlns="http://www.w3.org/2000/svg" xmlns:xlink="http://www.w3.org/1999/xlink" width="749" height="348" fill="none" xmlns:v="https://vecta.io/nano"><style><![CDATA[.B{fill-rule:evenodd}.C{fill:#bdbec9}]]></style><mask id="A" maskUnits="userSpaceOnUse" x="10" y="10" width="729" height="328" mask-type="alpha"><rect x="10" y="10" width="729" height="328" rx="11" fill="#fff"/></mask><g mask="url(#A)"><g filter="url(#B)"><rect x="10" y="10" width="729" height="328" rx="11" fill="#fff"/></g><g opacity=".3" class="B C"><use xlink:href="#C"/><use xlink:href="#C" x="-12"/><use xlink:href="#C" x="-24"/><use xlink:href="#C" x="-36"/><use xlink:href="#C" x="-48"/><use xlink:href="#C" x="-60"/><use xlink:href="#C" x="-72"/><use xlink:href="#C" x="-84"/><use xlink:href="#C" x="-96"/><use xlink:href="#C" x="-108"/><use xlink:href="#C" x="-120"/><use xlink:href="#C" x="-132"/><use xlink:href="#C" x="-144"/><use xlink:href="#C" x="-156"/><use xlink:href="#C" x="-168"/><use xlink:href="#C" x="-180"/><use xlink:href="#C" x="-192"/><use xlink:href="#C" x="-204"/><use xlink:href="#C" x="-216"/><use xlink:href="#C" x="-228"/><use xlink:href="#C" x="-240"/><use xlink:href="#C" x="-252"/><use xlink:href="#C" y="-12"/><use xlink:href="#C" x="-12" y="-12"/><use xlink:href="#C" x="-24" y="-12"/><use xlink:href="#C" x="-36" y="-12"/><use xlink:href="#C" x="-48" y="-12"/><use xlink:href="#C" x="-60" y="-12"/><use xlink:href="#C" x="-72" y="-12"/><use xlink:href="#C" x="-84" y="-12"/><use xlink:href="#C" x="-96" y="-12"/><use xlink:href="#C" x="-108" y="-12"/><use xlink:href="#C" x="-120" y="-12"/><use xlink:href="#C" x="-132" y="-12"/><use xlink:href="#C" x="-144" y="-12"/><use xlink:href="#C" x="-156" y="-12"/><use xlink:href="#C" x="-168" y="-12"/><use xlink:href="#C" x="-180" y="-12"/><use xlink:href="#C" x="-192" y="-12"/><use xlink:href="#C" x="-204" y="-12"/><use xlink:href="#C" x="-216" y="-12"/><use xlink:href="#C" x="-228" y="-12"/><use xlink:href="#C" x="-240" y="-12"/><use xlink:href="#C" x="-252" y="-12"/><use xlink:href="#C" y="-24"/><use xlink:href="#C" x="-12" y="-24"/><use xlink:href="#C" x="-24" y="-24"/><use xlink:href="#C" x="-36" y="-24"/><use xlink:href="#C" x="-48" y="-24"/><use xlink:href="#C" x="-60" y="-24"/><use xlink:href="#C" x="-72" y="-24"/><use xlink:href="#C" x="-84" y="-24"/><use xlink:href="#C" x="-96" y="-24"/><use xlink:href="#C" x="-108" y="-24"/><use xlink:href="#C" x="-120" y="-24"/><use xlink:href="#C" x="-132" y="-24"/><use xlink:href="#C" x="-144" y="-24"/><use xlink:href="#C" x="-156" y="-24"/><use xlink:href="#C" x="-168" y="-24"/><use xlink:href="#C" x="-180" y="-24"/><use xlink:href="#C" x="-192" y="-24"/><use xlink:href="#C" x="-204" y="-24"/><use xlink:href="#C" x="-216" y="-24"/><use xlink:href="#C" x="-228" y="-24"/><use xlink:href="#C" x="-240" y="-24"/><use xlink:href="#C" x="-252" y="-24"/><use xlink:href="#C" y="-36"/><use xlink:href="#C" x="-12" y="-36"/><use xlink:href="#C" x="-24" y="-36"/><use xlink:href="#C" x="-36" y="-36"/><use xlink:href="#C" x="-48" y="-36"/><use xlink:href="#C" x="-60" y="-36"/><use xlink:href="#C" x="-72" y="-36"/><use xlink:href="#C" x="-84" y="-36"/><use xlink:href="#C" x="-96" y="-36"/><use xlink:href="#C" x="-108" y="-36"/><use xlink:href="#C" x="-120" y="-36"/><use xlink:href="#C" x="-132" y="-36"/><use xlink:href="#C" x="-144" y="-36"/><use xlink:href="#C" x="-156" y="-36"/><use xlink:href="#C" x="-168" y="-36"/><use xlink:href="#C" x="-180" y="-36"/><use xlink:href="#C" x="-192" y="-36"/><use xlink:href="#C" x="-204" y="-36"/><use xlink:href="#C" x="-216" y="-36"/><use xlink:href="#C" x="-228" y="-36"/><use xlink:href="#C" x="-240" y="-36"/><use xlink:href="#C" x="-252" y="-36"/><use xlink:href="#C" y="-48"/><use xlink:href="#C" x="-12" y="-48"/><use xlink:href="#C" x="-24" y="-48"/><use xlink:href="#C" x="-36" y="-48"/><use xlink:href="#C" x="-48" y="-48"/><use xlink:href="#C" x="-60" y="-48"/><use xlink:href="#C" x="-72" y="-48"/><use xlink:href="#C" x="-84" y="-48"/><use xlink:href="#C" x="-96" y="-48"/><use xlink:href="#C" x="-108" y="-48"/><use xlink:href="#C" x="-120" y="-48"/><use xlink:href="#C" x="-132" y="-48"/><use xlink:href="#C" x="-144" y="-48"/><use xlink:href="#C" x="-156" y="-48"/><use xlink:href="#C" x="-168" y="-48"/><use xlink:href="#C" x="-180" y="-48"/><use xlink:href="#C" x="-192" y="-48"/><use xlink:href="#C" x="-204" y="-48"/><use xlink:href="#C" x="-216" y="-48"/><use xlink:href="#C" x="-228" y="-48"/><use xlink:href="#C" x="-240" y="-48"/><use xlink:href="#C" x="-252" y="-48"/><use xlink:href="#C" y="-60"/><use xlink:href="#C" x="-12" y="-60"/><use xlink:href="#C" x="-24" y="-60"/><use xlink:href="#C" x="-36" y="-60"/><use xlink:href="#C" x="-48" y="-60"/><use xlink:href="#C" x="-60" y="-60"/><use xlink:href="#C" x="-72" y="-60"/><use xlink:href="#C" x="-84" y="-60"/><use xlink:href="#C" x="-96" y="-60"/><use xlink:href="#C" x="-108" y="-60"/><use xlink:href="#C" x="-120" y="-60"/><use xlink:href="#C" x="-132" y="-60"/><use xlink:href="#C" x="-144" y="-60"/><use xlink:href="#C" x="-156" y="-60"/><use xlink:href="#C" x="-168" y="-60"/><use xlink:href="#C" x="-180" y="-60"/><use xlink:href="#C" x="-192" y="-60"/><use xlink:href="#C" x="-204" y="-60"/><use xlink:href="#C" x="-216" y="-60"/><use xlink:href="#C" x="-228" y="-60"/><use xlink:href="#C" x="-240" y="-60"/><use xlink:href="#C" x="-252" y="-60"/><use xlink:href="#C" y="-72"/><use xlink:href="#C" x="-12" y="-72"/><use xlink:href="#C" x="-24" y="-72"/><use xlink:href="#C" x="-36" y="-72"/><use xlink:href="#C" x="-48" y="-72"/><use xlink:href="#C" x="-60" y="-72"/><use xlink:href="#C" x="-72" y="-72"/><use xlink:href="#C" x="-84" y="-72"/><use xlink:href="#C" x="-96" y="-72"/><use xlink:href="#C" x="-108" y="-72"/><use xlink:href="#C" x="-120" y="-72"/><use xlink:href="#C" x="-132" y="-72"/><use xlink:href="#C" x="-144" y="-72"/><use xlink:href="#C" x="-156" y="-72"/><use xlink:href="#C" x="-168" y="-72"/><use xlink:href="#C" x="-180" y="-72"/><use xlink:href="#C" x="-192" y="-72"/><use xlink:href="#C" x="-204" y="-72"/><use xlink:href="#C" x="-216" y="-72"/><use xlink:href="#C" x="-228" y="-72"/><use xlink:href="#C" x="-240" y="-72"/><use xlink:href="#C" x="-252" y="-72"/><use xlink:href="#C" y="-84"/><use xlink:href="#C" x="-12" y="-84"/><use xlink:href="#C" x="-24" y="-84"/><use xlink:href="#C" x="-36" y="-84"/><use xlink:href="#C" x="-48" y="-84"/><use xlink:href="#C" x="-60" y="-84"/><use xlink:href="#C" x="-72" y="-84"/><use xlink:href="#C" x="-84" y="-84"/><use xlink:href="#C" x="-96" y="-84"/><use xlink:href="#C" x="-108" y="-84"/><use xlink:href="#C" x="-120" y="-84"/><use xlink:href="#C" x="-132" y="-84"/><use xlink:href="#C" x="-144" y="-84"/><use xlink:href="#C" x="-156" y="-84"/><use xlink:href="#C" x="-168" y="-84"/><use xlink:href="#C" x="-180" y="-84"/><use xlink:href="#C" x="-192" y="-84"/><use xlink:href="#C" x="-204" y="-84"/><use xlink:href="#C" x="-216" y="-84"/><use xlink:href="#C" x="-228" y="-84"/><use xlink:href="#C" x="-240" y="-84"/><use xlink:href="#C" x="-252" y="-84"/><use xlink:href="#C" y="-96"/><use xlink:href="#C" x="-12" y="-96"/><use xlink:href="#C" x="-24" y="-96"/><use xlink:href="#C" x="-36" y="-96"/><use xlink:href="#C" x="-48" y="-96"/><use xlink:href="#C" x="-60" y="-96"/><use xlink:href="#C" x="-72" y="-96"/><use xlink:href="#C" x="-84" y="-96"/><use xlink:href="#C" x="-96" y="-96"/><use xlink:href="#C" x="-108" y="-96"/><use xlink:href="#C" x="-120" y="-96"/><use xlink:href="#C" x="-132" y="-96"/><use xlink:href="#C" x="-144" y="-96"/><use xlink:href="#C" x="-156" y="-96"/><use xlink:href="#C" x="-168" y="-96"/><use xlink:href="#C" x="-180" y="-96"/><use xlink:href="#C" x="-192" y="-96"/><use xlink:href="#C" x="-204" y="-96"/><use xlink:href="#C" x="-216" y="-96"/><use xlink:href="#C" x="-228" y="-96"/><use xlink:href="#C" x="-240" y="-96"/><use xlink:href="#C" x="-252" y="-96"/><use xlink:href="#C" y="-108"/><use xlink:href="#C" x="-12" y="-108"/><use xlink:href="#C" x="-24" y="-108"/><use xlink:href="#C" x="-36" y="-108"/><use xlink:href="#C" x="-48" y="-108"/><use xlink:href="#C" x="-60" y="-108"/><use xlink:href="#C" x="-72" y="-108"/><use xlink:href="#C" x="-84" y="-108"/><use xlink:href="#C" x="-96" y="-108"/><use xlink:href="#C" x="-108" y="-108"/><use xlink:href="#C" x="-120" y="-108"/><use xlink:href="#C" x="-132" y="-108"/><use xlink:href="#C" x="-144" y="-108"/><use xlink:href="#C" x="-156" y="-108"/><use xlink:href="#C" x="-168" y="-108"/><use xlink:href="#C" x="-180" y="-108"/><use xlink:href="#C" x="-192" y="-108"/><use xlink:href="#C" x="-204" y="-108"/><use xlink:href="#C" x="-216" y="-108"/><use xlink:href="#C" x="-228" y="-108"/><use xlink:href="#C" x="-240" y="-108"/><use xlink:href="#C" x="-252" y="-108"/><use xlink:href="#C" y="-120"/><use xlink:href="#C" x="-12" y="-120"/><use xlink:href="#C" x="-24" y="-120"/><use xlink:href="#C" x="-36" y="-120"/><use xlink:href="#C" x="-48" y="-120"/><use xlink:href="#C" x="-60" y="-120"/><use xlink:href="#C" x="-72" y="-120"/><use xlink:href="#C" x="-84" y="-120"/><use xlink:href="#C" x="-96" y="-120"/><use xlink:href="#C" x="-108" y="-120"/><use xlink:href="#C" x="-120" y="-120"/><use xlink:href="#C" x="-132" y="-120"/><use xlink:href="#C" x="-144" y="-120"/><use xlink:href="#C" x="-156" y="-120"/><use xlink:href="#C" x="-168" y="-120"/><use xlink:href="#C" x="-180" y="-120"/><use xlink:href="#C" x="-192" y="-120"/><use xlink:href="#C" x="-204" y="-120"/><use xlink:href="#C" x="-216" y="-120"/><use xlink:href="#C" x="-228" y="-120"/><use xlink:href="#C" x="-240" y="-120"/><use xlink:href="#C" x="-252" y="-120"/><use xlink:href="#C" y="-132"/><use xlink:href="#C" x="-12" y="-132"/><use xlink:href="#C" x="-24" y="-132"/><use xlink:href="#C" x="-36" y="-132"/><use xlink:href="#C" x="-48" y="-132"/><use xlink:href="#C" x="-60" y="-132"/><use xlink:href="#C" x="-72" y="-132"/><use xlink:href="#C" x="-84" y="-132"/><use xlink:href="#C" x="-96" y="-132"/><use xlink:href="#C" x="-108" y="-132"/><use xlink:href="#C" x="-120" y="-132"/><use xlink:href="#C" x="-132" y="-132"/><use xlink:href="#C" x="-144" y="-132"/><use xlink:href="#C" x="-156" y="-132"/><use xlink:href="#C" x="-168" y="-132"/><use xlink:href="#C" x="-180" y="-132"/><use xlink:href="#C" x="-192" y="-132"/><use xlink:href="#C" x="-204" y="-132"/><use xlink:href="#C" x="-216" y="-132"/><use xlink:href="#C" x="-228" y="-132"/><use xlink:href="#C" x="-240" y="-132"/><use xlink:href="#C" x="-252" y="-132"/><use xlink:href="#C" y="-144"/><use xlink:href="#C" x="-12" y="-144"/><use xlink:href="#C" x="-24" y="-144"/><use xlink:href="#C" x="-36" y="-144"/><use xlink:href="#C" x="-48" y="-144"/><use xlink:href="#C" x="-60" y="-144"/><use xlink:href="#C" x="-72" y="-144"/><use xlink:href="#C" x="-84" y="-144"/><use xlink:href="#C" x="-96" y="-144"/><use xlink:href="#C" x="-108" y="-144"/><use xlink:href="#C" x="-120" y="-144"/><use xlink:href="#C" x="-132" y="-144"/><use xlink:href="#C" x="-144" y="-144"/><use xlink:href="#C" x="-156" y="-144"/><use xlink:href="#C" x="-168" y="-144"/><use xlink:href="#C" x="-180" y="-144"/><use xlink:href="#C" x="-192" y="-144"/><use xlink:href="#C" x="-204" y="-144"/><use xlink:href="#C" x="-216" y="-144"/><use xlink:href="#C" x="-228" y="-144"/><use xlink:href="#C" x="-240" y="-144"/><use xlink:href="#C" x="-252" y="-144"/><use xlink:href="#C" y="-156"/><use xlink:href="#C" x="-12" y="-156"/><use xlink:href="#C" x="-24" y="-156"/><use xlink:href="#C" x="-36" y="-156"/><use xlink:href="#C" x="-48" y="-156"/><use xlink:href="#C" x="-60" y="-156"/><use xlink:href="#C" x="-72" y="-156"/><use xlink:href="#C" x="-84" y="-156"/><use xlink:href="#C" x="-96" y="-156"/><use xlink:href="#C" x="-108" y="-156"/><use xlink:href="#C" x="-120" y="-156"/><use xlink:href="#C" x="-132" y="-156"/><use xlink:href="#C" x="-144" y="-156"/><use xlink:href="#C" x="-156" y="-156"/><use xlink:href="#C" x="-168" y="-156"/><use xlink:href="#C" x="-180" y="-156"/><use xlink:href="#C" x="-192" y="-156"/><use xlink:href="#C" x="-204" y="-156"/><use xlink:href="#C" x="-216" y="-156"/><use xlink:href="#C" x="-228" y="-156"/><use xlink:href="#C" x="-240" y="-156"/><use xlink:href="#C" x="-252" y="-156"/><use xlink:href="#C" y="-168"/><use xlink:href="#C" x="-12" y="-168"/><use xlink:href="#C" x="-24" y="-168"/><use xlink:href="#C" x="-36" y="-168"/><use xlink:href="#C" x="-48" y="-168"/><use xlink:href="#C" x="-60" y="-168"/><use xlink:href="#C" x="-72" y="-168"/><use xlink:href="#C" x="-84" y="-168"/><use xlink:href="#C" x="-96" y="-168"/><use xlink:href="#C" x="-108" y="-168"/><use xlink:href="#C" x="-120" y="-168"/><use xlink:href="#C" x="-132" y="-168"/><use xlink:href="#C" x="-144" y="-168"/><use xlink:href="#C" x="-156" y="-168"/><use xlink:href="#C" x="-168" y="-168"/><use xlink:href="#C" x="-180" y="-168"/><use xlink:href="#C" x="-192" y="-168"/><use xlink:href="#C" x="-204" y="-168"/><use xlink:href="#C" x="-216" y="-168"/><use xlink:href="#C" x="-228" y="-168"/><use xlink:href="#C" x="-240" y="-168"/><use xlink:href="#C" x="-252" y="-168"/><use xlink:href="#C" y="-180"/><use xlink:href="#C" x="-12" y="-180"/><use xlink:href="#C" x="-24" y="-180"/><use xlink:href="#C" x="-36" y="-180"/><use xlink:href="#C" x="-48" y="-180"/><use xlink:href="#C" x="-60" y="-180"/><use xlink:href="#C" x="-72" y="-180"/><use xlink:href="#C" x="-84" y="-180"/><use xlink:href="#C" x="-96" y="-180"/><use xlink:href="#C" x="-108" y="-180"/><use xlink:href="#C" x="-120" y="-180"/><use xlink:href="#C" x="-132" y="-180"/><use xlink:href="#C" x="-144" y="-180"/><use xlink:href="#C" x="-156" y="-180"/><use xlink:href="#C" x="-168" y="-180"/><use xlink:href="#C" x="-180" y="-180"/><use xlink:href="#C" x="-192" y="-180"/><use xlink:href="#C" x="-204" y="-180"/><use xlink:href="#C" x="-216" y="-180"/><use xlink:href="#C" x="-228" y="-180"/><use xlink:href="#C" x="-240" y="-180"/><use xlink:href="#C" x="-252" y="-180"/></g><g opacity=".3" class="B C"><use xlink:href="#C" x="467" y="-169"/><use xlink:href="#C" x="455" y="-169"/><use xlink:href="#C" x="443" y="-169"/><use xlink:href="#C" x="431" y="-169"/><use xlink:href="#C" x="419" y="-169"/><use xlink:href="#C" x="407" y="-169"/><use xlink:href="#C" x="395" y="-169"/><use xlink:href="#C" x="383" y="-169"/><use xlink:href="#C" x="371" y="-169"/><use xlink:href="#C" x="359" y="-169"/><use xlink:href="#C" x="347" y="-169"/><use xlink:href="#C" x="335" y="-169"/><use xlink:href="#C" x="323" y="-169"/><use xlink:href="#C" x="311" y="-169"/><use xlink:href="#C" x="299" y="-169"/><use xlink:href="#C" x="287" y="-169"/><use xlink:href="#C" x="275" y="-169"/><use xlink:href="#C" x="263" y="-169"/><use xlink:href="#C" x="251" y="-169"/><use xlink:href="#C" x="239" y="-169"/><use xlink:href="#C" x="227" y="-169"/><use xlink:href="#C" x="215" y="-169"/><use xlink:href="#C" x="203" y="-169"/><use xlink:href="#C" x="191" y="-169"/><use xlink:href="#C" x="179" y="-169"/><use xlink:href="#C" x="167" y="-169"/><use xlink:href="#C" x="155" y="-169"/><use xlink:href="#C" x="143" y="-169"/><use xlink:href="#C" x="131" y="-169"/><use xlink:href="#C" x="467" y="-181"/><use xlink:href="#C" x="455" y="-181"/><use xlink:href="#C" x="443" y="-181"/><use xlink:href="#C" x="431" y="-181"/><use xlink:href="#C" x="419" y="-181"/><use xlink:href="#C" x="407" y="-181"/><use xlink:href="#C" x="395" y="-181"/><use xlink:href="#C" x="383" y="-181"/><use xlink:href="#C" x="371" y="-181"/><use xlink:href="#C" x="359" y="-181"/><use xlink:href="#C" x="347" y="-181"/><use xlink:href="#C" x="335" y="-181"/><use xlink:href="#C" x="323" y="-181"/><use xlink:href="#C" x="311" y="-181"/><use xlink:href="#C" x="299" y="-181"/><use xlink:href="#C" x="287" y="-181"/><use xlink:href="#C" x="275" y="-181"/><use xlink:href="#C" x="263" y="-181"/><use xlink:href="#C" x="251" y="-181"/><use xlink:href="#C" x="239" y="-181"/><use xlink:href="#C" x="227" y="-181"/><use xlink:href="#C" x="215" y="-181"/><use xlink:href="#C" x="203" y="-181"/><use xlink:href="#C" x="191" y="-181"/><use xlink:href="#C" x="179" y="-181"/><use xlink:href="#C" x="167" y="-181"/><use xlink:href="#C" x="155" y="-181"/><use xlink:href="#C" x="143" y="-181"/><use xlink:href="#C" x="131" y="-181"/><use xlink:href="#C" x="467" y="-193"/><use xlink:href="#C" x="455" y="-193"/><use xlink:href="#C" x="443" y="-193"/><use xlink:href="#C" x="431" y="-193"/><use xlink:href="#C" x="419" y="-193"/><use xlink:href="#C" x="407" y="-193"/><use xlink:href="#C" x="395" y="-193"/><use xlink:href="#C" x="383" y="-193"/><use xlink:href="#C" x="371" y="-193"/><use xlink:href="#C" x="359" y="-193"/><use xlink:href="#C" x="347" y="-193"/><use xlink:href="#C" x="335" y="-193"/><use xlink:href="#C" x="323" y="-193"/><use xlink:href="#C" x="311" y="-193"/><use xlink:href="#C" x="299" y="-193"/><use xlink:href="#C" x="287" y="-193"/><use xlink:href="#C" x="275" y="-193"/><use xlink:href="#C" x="263" y="-193"/><use xlink:href="#C" x="251" y="-193"/><use xlink:href="#C" x="239" y="-193"/><use xlink:href="#C" x="227" y="-193"/><use xlink:href="#C" x="215" y="-193"/><use xlink:href="#C" x="203" y="-193"/><use xlink:href="#C" x="191" y="-193"/><use xlink:href="#C" x="179" y="-193"/><use xlink:href="#C" x="167" y="-193"/><use xlink:href="#C" x="155" y="-193"/><use xlink:href="#C" x="143" y="-193"/><use xlink:href="#C" x="131" y="-193"/><use xlink:href="#C" x="467" y="-205"/><use xlink:href="#C" x="455" y="-205"/><use xlink:href="#C" x="443" y="-205"/><use xlink:href="#C" x="431" y="-205"/><use xlink:href="#C" x="419" y="-205"/><use xlink:href="#C" x="407" y="-205"/><use xlink:href="#C" x="395" y="-205"/><use xlink:href="#C" x="383" y="-205"/><use xlink:href="#C" x="371" y="-205"/><use xlink:href="#C" x="359" y="-205"/><use xlink:href="#C" x="347" y="-205"/><use xlink:href="#C" x="335" y="-205"/><use xlink:href="#C" x="323" y="-205"/><use xlink:href="#C" x="311" y="-205"/><use xlink:href="#C" x="299" y="-205"/><use xlink:href="#C" x="287" y="-205"/><use xlink:href="#C" x="275" y="-205"/><use xlink:href="#C" x="263" y="-205"/><use xlink:href="#C" x="251" y="-205"/><use xlink:href="#C" x="239" y="-205"/><use xlink:href="#C" x="227" y="-205"/><use xlink:href="#C" x="215" y="-205"/><use xlink:href="#C" x="203" y="-205"/><use xlink:href="#C" x="191" y="-205"/><use xlink:href="#C" x="179" y="-205"/><use xlink:href="#C" x="167" y="-205"/><use xlink:href="#C" x="155" y="-205"/><use xlink:href="#C" x="143" y="-205"/><use xlink:href="#C" x="131" y="-205"/><use xlink:href="#C" x="467" y="-217"/><use xlink:href="#C" x="455" y="-217"/><use xlink:href="#C" x="443" y="-217"/><use xlink:href="#C" x="431" y="-217"/><use xlink:href="#C" x="419" y="-217"/><use xlink:href="#C" x="407" y="-217"/><use xlink:href="#C" x="395" y="-217"/><use xlink:href="#C" x="383" y="-217"/><use xlink:href="#C" x="371" y="-217"/><use xlink:href="#C" x="359" y="-217"/><use xlink:href="#C" x="347" y="-217"/><use xlink:href="#C" x="335" y="-217"/><use xlink:href="#C" x="323" y="-217"/><use xlink:href="#C" x="311" y="-217"/><use xlink:href="#C" x="299" y="-217"/><use xlink:href="#C" x="287" y="-217"/><use xlink:href="#C" x="275" y="-217"/><use xlink:href="#C" x="263" y="-217"/><use xlink:href="#C" x="251" y="-217"/><use xlink:href="#C" x="239" y="-217"/><use xlink:href="#C" x="227" y="-217"/><use xlink:href="#C" x="215" y="-217"/><use xlink:href="#C" x="203" y="-217"/><use xlink:href="#C" x="191" y="-217"/><use xlink:href="#C" x="179" y="-217"/><use xlink:href="#C" x="167" y="-217"/><use xlink:href="#C" x="155" y="-217"/><use xlink:href="#C" x="143" y="-217"/><use xlink:href="#C" x="131" y="-217"/><use xlink:href="#C" x="467" y="-229"/><use xlink:href="#C" x="455" y="-229"/><use xlink:href="#C" x="443" y="-229"/><use xlink:href="#C" x="431" y="-229"/><use xlink:href="#C" x="419" y="-229"/><use xlink:href="#C" x="407" y="-229"/><use xlink:href="#C" x="395" y="-229"/><use xlink:href="#C" x="383" y="-229"/><use xlink:href="#C" x="371" y="-229"/><use xlink:href="#C" x="359" y="-229"/><use xlink:href="#C" x="347" y="-229"/><use xlink:href="#C" x="335" y="-229"/><use xlink:href="#C" x="323" y="-229"/><use xlink:href="#C" x="311" y="-229"/><use xlink:href="#C" x="299" y="-229"/><use xlink:href="#C" x="287" y="-229"/><use xlink:href="#C" x="275" y="-229"/><use xlink:href="#C" x="263" y="-229"/><use xlink:href="#C" x="251" y="-229"/><use xlink:href="#C" x="239" y="-229"/><use xlink:href="#C" x="227" y="-229"/><use xlink:href="#C" x="215" y="-229"/><use xlink:href="#C" x="203" y="-229"/><use xlink:href="#C" x="191" y="-229"/><use xlink:href="#C" x="179" y="-229"/><use xlink:href="#C" x="167" y="-229"/><use xlink:href="#C" x="155" y="-229"/><use xlink:href="#C" x="143" y="-229"/><use xlink:href="#C" x="131" y="-229"/><use xlink:href="#C" x="467" y="-241"/><use xlink:href="#C" x="455" y="-241"/><use xlink:href="#C" x="443" y="-241"/><use xlink:href="#C" x="431" y="-241"/><use xlink:href="#C" x="419" y="-241"/><use xlink:href="#C" x="407" y="-241"/><use xlink:href="#C" x="395" y="-241"/><use xlink:href="#C" x="383" y="-241"/><use xlink:href="#C" x="371" y="-241"/><use xlink:href="#C" x="359" y="-241"/><use xlink:href="#C" x="347" y="-241"/><use xlink:href="#C" x="335" y="-241"/><use xlink:href="#C" x="323" y="-241"/><use xlink:href="#C" x="311" y="-241"/><use xlink:href="#C" x="299" y="-241"/><use xlink:href="#C" x="287" y="-241"/><use xlink:href="#C" x="275" y="-241"/><use xlink:href="#C" x="263" y="-241"/><use xlink:href="#C" x="251" y="-241"/><use xlink:href="#C" x="239" y="-241"/><use xlink:href="#C" x="227" y="-241"/><use xlink:href="#C" x="215" y="-241"/><use xlink:href="#C" x="203" y="-241"/><use xlink:href="#C" x="191" y="-241"/><use xlink:href="#C" x="179" y="-241"/><use xlink:href="#C" x="167" y="-241"/><use xlink:href="#C" x="155" y="-241"/><use xlink:href="#C" x="143" y="-241"/><use xlink:href="#C" x="131" y="-241"/><use xlink:href="#C" x="467" y="-253"/><use xlink:href="#C" x="455" y="-253"/><use xlink:href="#C" x="443" y="-253"/><use xlink:href="#C" x="431" y="-253"/><use xlink:href="#C" x="419" y="-253"/><use xlink:href="#C" x="407" y="-253"/><use xlink:href="#C" x="395" y="-253"/><use xlink:href="#C" x="383" y="-253"/><use xlink:href="#C" x="371" y="-253"/><use xlink:href="#C" x="359" y="-253"/><use xlink:href="#C" x="347" y="-253"/><use xlink:href="#C" x="335" y="-253"/><use xlink:href="#C" x="323" y="-253"/><use xlink:href="#C" x="311" y="-253"/><use xlink:href="#C" x="299" y="-253"/><use xlink:href="#C" x="287" y="-253"/><use xlink:href="#C" x="275" y="-253"/><use xlink:href="#C" x="263" y="-253"/><use xlink:href="#C" x="251" y="-253"/><use xlink:href="#C" x="239" y="-253"/><use xlink:href="#C" x="227" y="-253"/><use xlink:href="#C" x="215" y="-253"/><use xlink:href="#C" x="203" y="-253"/><use xlink:href="#C" x="191" y="-253"/><use xlink:href="#C" x="179" y="-253"/><use xlink:href="#C" x="167" y="-253"/><use xlink:href="#C" x="155" y="-253"/><use xlink:href="#C" x="143" y="-253"/><use xlink:href="#C" x="131" y="-253"/><use xlink:href="#C" x="467" y="-265"/><use xlink:href="#C" x="455" y="-265"/><use xlink:href="#C" x="443" y="-265"/><use xlink:href="#C" x="431" y="-265"/><use xlink:href="#C" x="419" y="-265"/><use xlink:href="#C" x="407" y="-265"/><use xlink:href="#C" x="395" y="-265"/><use xlink:href="#C" x="383" y="-265"/><use xlink:href="#C" x="371" y="-265"/><use xlink:href="#C" x="359" y="-265"/><use xlink:href="#C" x="347" y="-265"/><use xlink:href="#C" x="335" y="-265"/><use xlink:href="#C" x="323" y="-265"/><use xlink:href="#C" x="311" y="-265"/><use xlink:href="#C" x="299" y="-265"/><use xlink:href="#C" x="287" y="-265"/><use xlink:href="#C" x="275" y="-265"/><use xlink:href="#C" x="263" y="-265"/><use xlink:href="#C" x="251" y="-265"/><use xlink:href="#C" x="239" y="-265"/><use xlink:href="#C" x="227" y="-265"/><use xlink:href="#C" x="215" y="-265"/><use xlink:href="#C" x="203" y="-265"/><use xlink:href="#C" x="191" y="-265"/><use xlink:href="#C" x="179" y="-265"/><use xlink:href="#C" x="167" y="-265"/><use xlink:href="#C" x="155" y="-265"/><use xlink:href="#C" x="143" y="-265"/><use xlink:href="#C" x="131" y="-265"/><use xlink:href="#C" x="467" y="-277"/><use xlink:href="#C" x="455" y="-277"/><use xlink:href="#C" x="443" y="-277"/><use xlink:href="#C" x="431" y="-277"/><use xlink:href="#C" x="419" y="-277"/><use xlink:href="#C" x="407" y="-277"/><use xlink:href="#C" x="395" y="-277"/><use xlink:href="#C" x="383" y="-277"/><use xlink:href="#C" x="371" y="-277"/><use xlink:href="#C" x="359" y="-277"/><use xlink:href="#C" x="347" y="-277"/><use xlink:href="#C" x="335" y="-277"/><use xlink:href="#C" x="323" y="-277"/><use xlink:href="#C" x="311" y="-277"/><use xlink:href="#C" x="299" y="-277"/><use xlink:href="#C" x="287" y="-277"/><use xlink:href="#C" x="275" y="-277"/><use xlink:href="#C" x="263" y="-277"/><use xlink:href="#C" x="251" y="-277"/><use xlink:href="#C" x="239" y="-277"/><use xlink:href="#C" x="227" y="-277"/><use xlink:href="#C" x="215" y="-277"/><use xlink:href="#C" x="203" y="-277"/><use xlink:href="#C" x="191" y="-277"/><use xlink:href="#C" x="179" y="-277"/><use xlink:href="#C" x="167" y="-277"/><use xlink:href="#C" x="155" y="-277"/><use xlink:href="#C" x="143" y="-277"/><use xlink:href="#C" x="131" y="-277"/><use xlink:href="#C" x="467" y="-289"/><use xlink:href="#C" x="455" y="-289"/><use xlink:href="#C" x="443" y="-289"/><use xlink:href="#C" x="431" y="-289"/><use xlink:href="#C" x="419" y="-289"/><use xlink:href="#C" x="407" y="-289"/><use xlink:href="#C" x="395" y="-289"/><use xlink:href="#C" x="383" y="-289"/><use xlink:href="#C" x="371" y="-289"/><use xlink:href="#C" x="359" y="-289"/><use xlink:href="#C" x="347" y="-289"/><use xlink:href="#C" x="335" y="-289"/><use xlink:href="#C" x="323" y="-289"/><use xlink:href="#C" x="311" y="-289"/><use xlink:href="#C" x="299" y="-289"/><use xlink:href="#C" x="287" y="-289"/><use xlink:href="#C" x="275" y="-289"/><use xlink:href="#C" x="263" y="-289"/><use xlink:href="#C" x="251" y="-289"/><use xlink:href="#C" x="239" y="-289"/><use xlink:href="#C" x="227" y="-289"/><use xlink:href="#C" x="215" y="-289"/><use xlink:href="#C" x="203" y="-289"/><use xlink:href="#C" x="191" y="-289"/><use xlink:href="#C" x="179" y="-289"/><use xlink:href="#C" x="167" y="-289"/><use xlink:href="#C" x="155" y="-289"/><use xlink:href="#C" x="143" y="-289"/><use xlink:href="#C" x="131" y="-289"/><use xlink:href="#C" x="467" y="-301"/><use xlink:href="#C" x="455" y="-301"/><use xlink:href="#C" x="443" y="-301"/><use xlink:href="#C" x="431" y="-301"/><use xlink:href="#C" x="419" y="-301"/><use xlink:href="#C" x="407" y="-301"/><use xlink:href="#C" x="395" y="-301"/><use xlink:href="#C" x="383" y="-301"/><use xlink:href="#C" x="371" y="-301"/><use xlink:href="#C" x="359" y="-301"/><use xlink:href="#C" x="347" y="-301"/><use xlink:href="#C" x="335" y="-301"/><use xlink:href="#C" x="323" y="-301"/><use xlink:href="#C" x="311" y="-301"/><use xlink:href="#C" x="299" y="-301"/><use xlink:href="#C" x="287" y="-301"/><use xlink:href="#C" x="275" y="-301"/><use xlink:href="#C" x="263" y="-301"/><use xlink:href="#C" x="251" y="-301"/><use xlink:href="#C" x="239" y="-301"/><use xlink:href="#C" x="227" y="-301"/><use xlink:href="#C" x="215" y="-301"/><use xlink:href="#C" x="203" y="-301"/><use xlink:href="#C" x="191" y="-301"/><use xlink:href="#C" x="179" y="-301"/><use xlink:href="#C" x="167" y="-301"/><use xlink:href="#C" x="155" y="-301"/><use xlink:href="#C" x="143" y="-301"/><use xlink:href="#C" x="131" y="-301"/><use xlink:href="#C" x="467" y="-313"/><use xlink:href="#C" x="455" y="-313"/><use xlink:href="#C" x="443" y="-313"/><use xlink:href="#C" x="431" y="-313"/><use xlink:href="#C" x="419" y="-313"/><use xlink:href="#C" x="407" y="-313"/><use xlink:href="#C" x="395" y="-313"/><use xlink:href="#C" x="383" y="-313"/><use xlink:href="#C" x="371" y="-313"/><use xlink:href="#C" x="359" y="-313"/><use xlink:href="#C" x="347" y="-313"/><use xlink:href="#C" x="335" y="-313"/><use xlink:href="#C" x="323" y="-313"/><use xlink:href="#C" x="311" y="-313"/><use xlink:href="#C" x="299" y="-313"/><use xlink:href="#C" x="287" y="-313"/><use xlink:href="#C" x="275" y="-313"/><use xlink:href="#C" x="263" y="-313"/><use xlink:href="#C" x="251" y="-313"/><use xlink:href="#C" x="239" y="-313"/><use xlink:href="#C" x="227" y="-313"/><use xlink:href="#C" x="215" y="-313"/><use xlink:href="#C" x="203" y="-313"/><use xlink:href="#C" x="191" y="-313"/><use xlink:href="#C" x="179" y="-313"/><use xlink:href="#C" x="167" y="-313"/><use xlink:href="#C" x="155" y="-313"/><use xlink:href="#C" x="143" y="-313"/><use xlink:href="#C" x="131" y="-313"/><use xlink:href="#C" x="467" y="-325"/><use xlink:href="#C" x="455" y="-325"/><use xlink:href="#C" x="443" y="-325"/><use xlink:href="#C" x="431" y="-325"/><use xlink:href="#C" x="419" y="-325"/><use xlink:href="#C" x="407" y="-325"/><use xlink:href="#C" x="395" y="-325"/><use xlink:href="#C" x="383" y="-325"/><use xlink:href="#C" x="371" y="-325"/><use xlink:href="#C" x="359" y="-325"/><use xlink:href="#C" x="347" y="-325"/><use xlink:href="#C" x="335" y="-325"/><use xlink:href="#C" x="323" y="-325"/><use xlink:href="#C" x="311" y="-325"/><use xlink:href="#C" x="299" y="-325"/><use xlink:href="#C" x="287" y="-325"/><use xlink:href="#C" x="275" y="-325"/><use xlink:href="#C" x="263" y="-325"/><use xlink:href="#C" x="251" y="-325"/><use xlink:href="#C" x="239" y="-325"/><use xlink:href="#C" x="227" y="-325"/><use xlink:href="#C" x="215" y="-325"/><use xlink:href="#C" x="203" y="-325"/><use xlink:href="#C" x="191" y="-325"/><use xlink:href="#C" x="179" y="-325"/><use xlink:href="#C" x="167" y="-325"/><use xlink:href="#C" x="155" y="-325"/><use xlink:href="#C" x="143" y="-325"/><use xlink:href="#C" x="131" y="-325"/></g></g><defs><filter id="B" x="0" y="0" width="749" height="348" filterUnits="userSpaceOnUse" color-interpolation-filters="sRGB"><feFlood flood-opacity="0" result="A"/><feColorMatrix in="SourceAlpha" values="0 0 0 0 0 0 0 0 0 0 0 0 0 0 0 0 0 0 127 0"/><feOffset/><feGaussianBlur stdDeviation="5"/><feColorMatrix values="0 0 0 0 0 0 0 0 0 0 0 0 0 0 0 0 0 0 0.1 0"/><feBlend in2="A"/><feBlend in="SourceGraphic"/></filter><path id="C" d="M263 338a1 1 0 1 0 0-2 1 1 0 1 0 0 2z"/></defs></svg>